<mxfile host="app.diagrams.net" agent="Mozilla/5.0 (X11; Ubuntu; Linux x86_64; rv:142.0) Gecko/20100101 Firefox/142.0" version="28.1.2">
  <diagram name="Page-1" id="AG6VY8Rc6NJU_sfDD2fj">
    <mxGraphModel dx="2357" dy="882" grid="1" gridSize="10" guides="1" tooltips="1" connect="1" arrows="1" fold="1" page="1" pageScale="1" pageWidth="827" pageHeight="1169" math="0" shadow="0">
      <root>
        <mxCell id="0" />
        <mxCell id="1" parent="0" />
        <mxCell id="ZJkNO1DkvYYas-fnlK-e-75" value="&lt;div&gt;&lt;br&gt;&lt;/div&gt;&lt;div&gt;&lt;br&gt;&lt;/div&gt;&lt;div&gt;&lt;br&gt;&lt;/div&gt;&lt;div&gt;&lt;br&gt;&lt;/div&gt;&lt;div&gt;&lt;br&gt;&lt;/div&gt;&lt;div&gt;&lt;br&gt;&lt;/div&gt;&lt;div&gt;&lt;br&gt;&lt;/div&gt;&lt;div&gt;&lt;br&gt;&lt;/div&gt;&lt;div&gt;&lt;br&gt;&lt;/div&gt;&lt;div&gt;&lt;br&gt;&lt;/div&gt;&lt;div&gt;&lt;br&gt;&lt;/div&gt;&lt;div&gt;&lt;br&gt;&lt;/div&gt;&lt;div&gt;&lt;br&gt;&lt;/div&gt;&lt;div&gt;&lt;br&gt;&lt;/div&gt;&lt;div&gt;&lt;br&gt;&lt;/div&gt;&lt;div&gt;&lt;br&gt;&lt;/div&gt;&lt;div&gt;&lt;br&gt;&lt;/div&gt;&lt;div&gt;&lt;br&gt;&lt;/div&gt;&lt;div&gt;&lt;br&gt;&lt;/div&gt;&lt;div&gt;&lt;br&gt;&lt;/div&gt;&lt;div&gt;&lt;br&gt;&lt;/div&gt;&lt;div&gt;&lt;br&gt;&lt;/div&gt;&lt;div&gt;&lt;br&gt;&lt;/div&gt;&lt;div&gt;&lt;br&gt;&lt;/div&gt;&lt;div&gt;&lt;br&gt;&lt;/div&gt;&lt;div&gt;&lt;br&gt;&lt;/div&gt;&lt;div&gt;&lt;br&gt;&lt;/div&gt;&lt;div&gt;&lt;br&gt;&lt;/div&gt;&lt;div&gt;&lt;br&gt;&lt;/div&gt;&lt;div&gt;&lt;br&gt;&lt;/div&gt;&lt;div&gt;&lt;br&gt;&lt;/div&gt;&lt;div&gt;&lt;br&gt;&lt;/div&gt;&lt;div&gt;Tweeter / High / Mid Killer&lt;/div&gt;" style="rounded=0;whiteSpace=wrap;html=1;fillColor=none;strokeColor=light-dark(#B20000,#FF0000);" vertex="1" parent="1">
          <mxGeometry x="40" y="450" width="570" height="490" as="geometry" />
        </mxCell>
        <mxCell id="ZJkNO1DkvYYas-fnlK-e-131" value="" style="group;rotation=-180;" vertex="1" connectable="0" parent="1">
          <mxGeometry x="110" y="610" width="70" height="150" as="geometry" />
        </mxCell>
        <mxCell id="ZJkNO1DkvYYas-fnlK-e-120" value="" style="rounded=0;whiteSpace=wrap;html=1;container=0;rotation=-180;" vertex="1" parent="ZJkNO1DkvYYas-fnlK-e-131">
          <mxGeometry width="70" height="150" as="geometry" />
        </mxCell>
        <mxCell id="ZJkNO1DkvYYas-fnlK-e-121" value="" style="rounded=0;whiteSpace=wrap;html=1;container=0;rotation=-180;" vertex="1" parent="ZJkNO1DkvYYas-fnlK-e-131">
          <mxGeometry x="42" y="119" width="13.650000000000002" height="15.714285714285715" as="geometry" />
        </mxCell>
        <mxCell id="ZJkNO1DkvYYas-fnlK-e-203" style="edgeStyle=orthogonalEdgeStyle;rounded=0;orthogonalLoop=1;jettySize=auto;html=1;exitX=0.5;exitY=0;exitDx=0;exitDy=0;entryX=0.5;entryY=0;entryDx=0;entryDy=0;startArrow=classic;startFill=1;strokeColor=light-dark(#000000,#FFFF00);" edge="1" parent="ZJkNO1DkvYYas-fnlK-e-131" source="ZJkNO1DkvYYas-fnlK-e-122" target="ZJkNO1DkvYYas-fnlK-e-121">
          <mxGeometry relative="1" as="geometry">
            <Array as="points">
              <mxPoint x="21" y="140" />
              <mxPoint x="49" y="140" />
            </Array>
          </mxGeometry>
        </mxCell>
        <mxCell id="ZJkNO1DkvYYas-fnlK-e-122" value="" style="rounded=0;whiteSpace=wrap;html=1;container=0;rotation=-180;" vertex="1" parent="ZJkNO1DkvYYas-fnlK-e-131">
          <mxGeometry x="14" y="119" width="13.650000000000002" height="15.714285714285715" as="geometry" />
        </mxCell>
        <mxCell id="ZJkNO1DkvYYas-fnlK-e-123" value="" style="rounded=0;whiteSpace=wrap;html=1;container=0;rotation=-180;" vertex="1" parent="ZJkNO1DkvYYas-fnlK-e-131">
          <mxGeometry x="42" y="87" width="13.650000000000002" height="15.714285714285715" as="geometry" />
        </mxCell>
        <mxCell id="ZJkNO1DkvYYas-fnlK-e-124" value="" style="rounded=0;whiteSpace=wrap;html=1;container=0;rotation=-180;" vertex="1" parent="ZJkNO1DkvYYas-fnlK-e-131">
          <mxGeometry x="14" y="87" width="13.650000000000002" height="15.714285714285715" as="geometry" />
        </mxCell>
        <mxCell id="ZJkNO1DkvYYas-fnlK-e-126" value="" style="rounded=0;whiteSpace=wrap;html=1;container=0;rotation=-180;" vertex="1" parent="ZJkNO1DkvYYas-fnlK-e-131">
          <mxGeometry x="42" y="56" width="13.650000000000002" height="15.714285714285715" as="geometry" />
        </mxCell>
        <mxCell id="ZJkNO1DkvYYas-fnlK-e-127" value="" style="rounded=0;whiteSpace=wrap;html=1;container=0;rotation=-180;" vertex="1" parent="ZJkNO1DkvYYas-fnlK-e-131">
          <mxGeometry x="14" y="56" width="13.650000000000002" height="15.714285714285715" as="geometry" />
        </mxCell>
        <mxCell id="ZJkNO1DkvYYas-fnlK-e-129" value="" style="rounded=0;whiteSpace=wrap;html=1;container=0;rotation=-180;" vertex="1" parent="ZJkNO1DkvYYas-fnlK-e-131">
          <mxGeometry x="42" y="14" width="13.650000000000002" height="15.714285714285715" as="geometry" />
        </mxCell>
        <mxCell id="ZJkNO1DkvYYas-fnlK-e-130" value="" style="rounded=0;whiteSpace=wrap;html=1;container=0;rotation=-180;" vertex="1" parent="ZJkNO1DkvYYas-fnlK-e-131">
          <mxGeometry x="14" y="14" width="13.650000000000002" height="15.714285714285715" as="geometry" />
        </mxCell>
        <mxCell id="ZJkNO1DkvYYas-fnlK-e-71" value="&lt;div&gt;&lt;br&gt;&lt;/div&gt;&lt;div&gt;&lt;br&gt;&lt;/div&gt;&lt;div&gt;&lt;br&gt;&lt;/div&gt;&lt;div&gt;&lt;br&gt;&lt;/div&gt;&lt;div&gt;&lt;br&gt;&lt;/div&gt;&lt;div&gt;&lt;br&gt;&lt;/div&gt;&lt;div&gt;&lt;br&gt;&lt;/div&gt;&lt;div&gt;&lt;br&gt;&lt;/div&gt;&lt;div&gt;&lt;br&gt;&lt;/div&gt;&lt;div&gt;&lt;br&gt;&lt;/div&gt;&lt;div&gt;&lt;br&gt;&lt;/div&gt;&lt;div&gt;&lt;br&gt;&lt;/div&gt;&lt;div&gt;&lt;br&gt;&lt;/div&gt;&lt;div&gt;&lt;br&gt;&lt;/div&gt;&lt;div&gt;&lt;br&gt;&lt;/div&gt;&lt;div&gt;&lt;br&gt;&lt;/div&gt;&lt;div&gt;&lt;br&gt;&lt;/div&gt;&lt;div&gt;&lt;br&gt;&lt;/div&gt;&lt;div&gt;&lt;br&gt;&lt;/div&gt;&lt;div&gt;&lt;br&gt;&lt;/div&gt;&lt;div&gt;&lt;br&gt;&lt;/div&gt;&lt;div&gt;&lt;br&gt;&lt;/div&gt;&lt;div&gt;&lt;br&gt;&lt;/div&gt;&lt;div&gt;&lt;br&gt;&lt;/div&gt;&lt;div&gt;&lt;br&gt;&lt;/div&gt;&lt;div&gt;&lt;br&gt;&lt;/div&gt;&lt;div&gt;&lt;br&gt;&lt;/div&gt;&lt;div&gt;&lt;br&gt;&lt;/div&gt;&lt;div&gt;&lt;br&gt;&lt;/div&gt;&lt;div&gt;&lt;br&gt;&lt;/div&gt;&lt;div&gt;&lt;br&gt;&lt;/div&gt;&lt;div&gt;&lt;br&gt;&lt;/div&gt;&lt;div&gt;4PDT Switch and XLR Connectors&lt;/div&gt;" style="rounded=0;whiteSpace=wrap;html=1;fillColor=none;strokeColor=light-dark(#000000,#00FF00);" vertex="1" parent="1">
          <mxGeometry x="630" y="450" width="430" height="490" as="geometry" />
        </mxCell>
        <mxCell id="ZJkNO1DkvYYas-fnlK-e-1" value="" style="rounded=0;whiteSpace=wrap;html=1;" vertex="1" parent="1">
          <mxGeometry x="40" y="40" width="990" height="160" as="geometry" />
        </mxCell>
        <mxCell id="ZJkNO1DkvYYas-fnlK-e-2" value="&lt;div&gt;&lt;br&gt;&lt;/div&gt;&lt;div&gt;&lt;br&gt;&lt;/div&gt;&lt;div&gt;6PDT - Mid/High/Tweeter&lt;/div&gt;" style="verticalLabelPosition=bottom;verticalAlign=top;html=1;shadow=0;dashed=0;strokeWidth=1;shape=mxgraph.android.switch_off;fillColor=#E6E6E6;sketch=0;fillColorStyles=fillColor2,fontColor2;strokeColorStyles=strokeColor2;strokeColor=none;strokeColor2=#cccccc;fillColor2=#999999;fontColor2=#ffffff;" vertex="1" parent="1">
          <mxGeometry x="135" y="160" width="80" height="20" as="geometry" />
        </mxCell>
        <mxCell id="ZJkNO1DkvYYas-fnlK-e-4" value="&lt;div&gt;&lt;br&gt;&lt;/div&gt;&lt;div&gt;&lt;br&gt;&lt;/div&gt;&lt;div&gt;4PDT Stereo Mid&lt;/div&gt;" style="verticalLabelPosition=bottom;verticalAlign=top;html=1;shadow=0;dashed=0;strokeWidth=1;shape=mxgraph.android.switch_off;fillColor=#E6E6E6;sketch=0;fillColorStyles=fillColor2,fontColor2;strokeColorStyles=strokeColor2;strokeColor=none;strokeColor2=#cccccc;fillColor2=#999999;fontColor2=#ffffff;" vertex="1" parent="1">
          <mxGeometry x="317" y="160" width="80" height="20" as="geometry" />
        </mxCell>
        <mxCell id="ZJkNO1DkvYYas-fnlK-e-5" value="&lt;div&gt;&lt;br&gt;&lt;/div&gt;&lt;div&gt;&lt;br&gt;&lt;/div&gt;&lt;div&gt;4PDT Stereo High&lt;/div&gt;" style="verticalLabelPosition=bottom;verticalAlign=top;html=1;shadow=0;dashed=0;strokeWidth=1;shape=mxgraph.android.switch_off;fillColor=#E6E6E6;sketch=0;fillColorStyles=fillColor2,fontColor2;strokeColorStyles=strokeColor2;strokeColor=none;strokeColor2=#cccccc;fillColor2=#999999;fontColor2=#ffffff;" vertex="1" parent="1">
          <mxGeometry x="435" y="160" width="80" height="20" as="geometry" />
        </mxCell>
        <mxCell id="ZJkNO1DkvYYas-fnlK-e-6" value="" style="rounded=0;whiteSpace=wrap;html=1;" vertex="1" parent="1">
          <mxGeometry x="40" y="260" width="990" height="170" as="geometry" />
        </mxCell>
        <mxCell id="ZJkNO1DkvYYas-fnlK-e-12" value="" style="group" vertex="1" connectable="0" parent="1">
          <mxGeometry x="60" y="350" width="110" height="60" as="geometry" />
        </mxCell>
        <mxCell id="ZJkNO1DkvYYas-fnlK-e-13" value="" style="rounded=0;whiteSpace=wrap;html=1;" vertex="1" parent="ZJkNO1DkvYYas-fnlK-e-12">
          <mxGeometry width="110" height="60" as="geometry" />
        </mxCell>
        <mxCell id="ZJkNO1DkvYYas-fnlK-e-14" value="" style="ellipse;whiteSpace=wrap;html=1;aspect=fixed;" vertex="1" parent="ZJkNO1DkvYYas-fnlK-e-12">
          <mxGeometry x="10" y="10" width="40" height="40" as="geometry" />
        </mxCell>
        <mxCell id="ZJkNO1DkvYYas-fnlK-e-15" value="" style="ellipse;whiteSpace=wrap;html=1;aspect=fixed;" vertex="1" parent="ZJkNO1DkvYYas-fnlK-e-12">
          <mxGeometry x="60" y="10" width="40" height="40" as="geometry" />
        </mxCell>
        <mxCell id="ZJkNO1DkvYYas-fnlK-e-16" value="" style="group" vertex="1" connectable="0" parent="1">
          <mxGeometry x="60" y="270" width="230" height="150" as="geometry" />
        </mxCell>
        <mxCell id="ZJkNO1DkvYYas-fnlK-e-17" value="" style="rounded=0;whiteSpace=wrap;html=1;" vertex="1" parent="ZJkNO1DkvYYas-fnlK-e-16">
          <mxGeometry width="110" height="60" as="geometry" />
        </mxCell>
        <mxCell id="ZJkNO1DkvYYas-fnlK-e-18" value="" style="ellipse;whiteSpace=wrap;html=1;aspect=fixed;" vertex="1" parent="ZJkNO1DkvYYas-fnlK-e-16">
          <mxGeometry x="10" y="10" width="40" height="40" as="geometry" />
        </mxCell>
        <mxCell id="ZJkNO1DkvYYas-fnlK-e-19" value="" style="ellipse;whiteSpace=wrap;html=1;aspect=fixed;" vertex="1" parent="ZJkNO1DkvYYas-fnlK-e-16">
          <mxGeometry x="60" y="10" width="40" height="40" as="geometry" />
        </mxCell>
        <mxCell id="ZJkNO1DkvYYas-fnlK-e-74" value="" style="rounded=0;whiteSpace=wrap;html=1;fillColor=none;strokeColor=light-dark(#B20000,#FF0000);" vertex="1" parent="ZJkNO1DkvYYas-fnlK-e-16">
          <mxGeometry width="230" height="150" as="geometry" />
        </mxCell>
        <mxCell id="ZJkNO1DkvYYas-fnlK-e-20" value="" style="group" vertex="1" connectable="0" parent="1">
          <mxGeometry x="180" y="350" width="110" height="60" as="geometry" />
        </mxCell>
        <mxCell id="ZJkNO1DkvYYas-fnlK-e-21" value="" style="rounded=0;whiteSpace=wrap;html=1;" vertex="1" parent="ZJkNO1DkvYYas-fnlK-e-20">
          <mxGeometry width="110" height="60" as="geometry" />
        </mxCell>
        <mxCell id="ZJkNO1DkvYYas-fnlK-e-22" value="" style="ellipse;whiteSpace=wrap;html=1;aspect=fixed;" vertex="1" parent="ZJkNO1DkvYYas-fnlK-e-20">
          <mxGeometry x="10" y="10" width="40" height="40" as="geometry" />
        </mxCell>
        <mxCell id="ZJkNO1DkvYYas-fnlK-e-23" value="" style="ellipse;whiteSpace=wrap;html=1;aspect=fixed;" vertex="1" parent="ZJkNO1DkvYYas-fnlK-e-20">
          <mxGeometry x="60" y="10" width="40" height="40" as="geometry" />
        </mxCell>
        <mxCell id="ZJkNO1DkvYYas-fnlK-e-24" value="" style="group" vertex="1" connectable="0" parent="1">
          <mxGeometry x="300" y="350" width="110" height="60" as="geometry" />
        </mxCell>
        <mxCell id="ZJkNO1DkvYYas-fnlK-e-25" value="" style="rounded=0;whiteSpace=wrap;html=1;" vertex="1" parent="ZJkNO1DkvYYas-fnlK-e-24">
          <mxGeometry width="110" height="60" as="geometry" />
        </mxCell>
        <mxCell id="ZJkNO1DkvYYas-fnlK-e-26" value="" style="ellipse;whiteSpace=wrap;html=1;aspect=fixed;" vertex="1" parent="ZJkNO1DkvYYas-fnlK-e-24">
          <mxGeometry x="10" y="10" width="40" height="40" as="geometry" />
        </mxCell>
        <mxCell id="ZJkNO1DkvYYas-fnlK-e-27" value="" style="ellipse;whiteSpace=wrap;html=1;aspect=fixed;" vertex="1" parent="ZJkNO1DkvYYas-fnlK-e-24">
          <mxGeometry x="60" y="10" width="40" height="40" as="geometry" />
        </mxCell>
        <mxCell id="ZJkNO1DkvYYas-fnlK-e-28" value="" style="group" vertex="1" connectable="0" parent="1">
          <mxGeometry x="300" y="280" width="114" height="60" as="geometry" />
        </mxCell>
        <mxCell id="ZJkNO1DkvYYas-fnlK-e-29" value="" style="rounded=0;whiteSpace=wrap;html=1;" vertex="1" parent="ZJkNO1DkvYYas-fnlK-e-28">
          <mxGeometry width="110" height="60" as="geometry" />
        </mxCell>
        <mxCell id="ZJkNO1DkvYYas-fnlK-e-30" value="" style="ellipse;whiteSpace=wrap;html=1;aspect=fixed;" vertex="1" parent="ZJkNO1DkvYYas-fnlK-e-28">
          <mxGeometry x="10" y="10" width="40" height="40" as="geometry" />
        </mxCell>
        <mxCell id="ZJkNO1DkvYYas-fnlK-e-31" value="" style="ellipse;whiteSpace=wrap;html=1;aspect=fixed;" vertex="1" parent="ZJkNO1DkvYYas-fnlK-e-28">
          <mxGeometry x="60" y="10" width="40" height="40" as="geometry" />
        </mxCell>
        <mxCell id="ZJkNO1DkvYYas-fnlK-e-32" value="" style="group" vertex="1" connectable="0" parent="1">
          <mxGeometry x="420" y="350" width="110" height="60" as="geometry" />
        </mxCell>
        <mxCell id="ZJkNO1DkvYYas-fnlK-e-33" value="" style="rounded=0;whiteSpace=wrap;html=1;" vertex="1" parent="ZJkNO1DkvYYas-fnlK-e-32">
          <mxGeometry width="110" height="60" as="geometry" />
        </mxCell>
        <mxCell id="ZJkNO1DkvYYas-fnlK-e-34" value="" style="ellipse;whiteSpace=wrap;html=1;aspect=fixed;" vertex="1" parent="ZJkNO1DkvYYas-fnlK-e-32">
          <mxGeometry x="10" y="10" width="40" height="40" as="geometry" />
        </mxCell>
        <mxCell id="ZJkNO1DkvYYas-fnlK-e-35" value="" style="ellipse;whiteSpace=wrap;html=1;aspect=fixed;" vertex="1" parent="ZJkNO1DkvYYas-fnlK-e-32">
          <mxGeometry x="60" y="10" width="40" height="40" as="geometry" />
        </mxCell>
        <mxCell id="ZJkNO1DkvYYas-fnlK-e-36" value="" style="group" vertex="1" connectable="0" parent="1">
          <mxGeometry x="420" y="280" width="110" height="140" as="geometry" />
        </mxCell>
        <mxCell id="ZJkNO1DkvYYas-fnlK-e-37" value="" style="rounded=0;whiteSpace=wrap;html=1;" vertex="1" parent="ZJkNO1DkvYYas-fnlK-e-36">
          <mxGeometry width="110" height="60" as="geometry" />
        </mxCell>
        <mxCell id="ZJkNO1DkvYYas-fnlK-e-38" value="" style="ellipse;whiteSpace=wrap;html=1;aspect=fixed;" vertex="1" parent="ZJkNO1DkvYYas-fnlK-e-36">
          <mxGeometry x="10" y="10" width="40" height="40" as="geometry" />
        </mxCell>
        <mxCell id="ZJkNO1DkvYYas-fnlK-e-39" value="" style="ellipse;whiteSpace=wrap;html=1;aspect=fixed;" vertex="1" parent="ZJkNO1DkvYYas-fnlK-e-36">
          <mxGeometry x="60" y="10" width="40" height="40" as="geometry" />
        </mxCell>
        <mxCell id="ZJkNO1DkvYYas-fnlK-e-73" value="" style="rounded=0;whiteSpace=wrap;html=1;fillColor=none;fontColor=#ffffff;strokeColor=light-dark(#000000,#00CC00);" vertex="1" parent="ZJkNO1DkvYYas-fnlK-e-36">
          <mxGeometry y="-10" width="110" height="150" as="geometry" />
        </mxCell>
        <mxCell id="ZJkNO1DkvYYas-fnlK-e-41" value="" style="rounded=0;whiteSpace=wrap;html=1;" vertex="1" parent="1">
          <mxGeometry x="659" y="480" width="371" height="280" as="geometry" />
        </mxCell>
        <mxCell id="ZJkNO1DkvYYas-fnlK-e-42" value="" style="rounded=0;whiteSpace=wrap;html=1;" vertex="1" parent="1">
          <mxGeometry x="700" y="520" width="39" height="40" as="geometry" />
        </mxCell>
        <mxCell id="ZJkNO1DkvYYas-fnlK-e-43" value="" style="rounded=0;whiteSpace=wrap;html=1;" vertex="1" parent="1">
          <mxGeometry x="779.5" y="520" width="39" height="40" as="geometry" />
        </mxCell>
        <mxCell id="ZJkNO1DkvYYas-fnlK-e-44" value="" style="rounded=0;whiteSpace=wrap;html=1;" vertex="1" parent="1">
          <mxGeometry x="700" y="600" width="39" height="40" as="geometry" />
        </mxCell>
        <mxCell id="ZJkNO1DkvYYas-fnlK-e-45" value="" style="rounded=0;whiteSpace=wrap;html=1;" vertex="1" parent="1">
          <mxGeometry x="779.5" y="600" width="39" height="40" as="geometry" />
        </mxCell>
        <mxCell id="ZJkNO1DkvYYas-fnlK-e-70" style="edgeStyle=orthogonalEdgeStyle;rounded=0;orthogonalLoop=1;jettySize=auto;html=1;exitX=0.5;exitY=1;exitDx=0;exitDy=0;entryX=0.5;entryY=1;entryDx=0;entryDy=0;startArrow=classic;startFill=1;strokeColor=light-dark(#000000,#FFFF00);" edge="1" parent="1" source="ZJkNO1DkvYYas-fnlK-e-46" target="ZJkNO1DkvYYas-fnlK-e-47">
          <mxGeometry relative="1" as="geometry" />
        </mxCell>
        <mxCell id="ZJkNO1DkvYYas-fnlK-e-46" value="" style="rounded=0;whiteSpace=wrap;html=1;" vertex="1" parent="1">
          <mxGeometry x="700" y="680" width="39" height="40" as="geometry" />
        </mxCell>
        <mxCell id="ZJkNO1DkvYYas-fnlK-e-47" value="" style="rounded=0;whiteSpace=wrap;html=1;" vertex="1" parent="1">
          <mxGeometry x="779.5" y="680" width="39" height="40" as="geometry" />
        </mxCell>
        <mxCell id="ZJkNO1DkvYYas-fnlK-e-48" value="&lt;div&gt;&lt;br&gt;&lt;/div&gt;&lt;div&gt;&lt;br&gt;&lt;/div&gt;&lt;div&gt;&lt;br&gt;&lt;/div&gt;&lt;div&gt;&lt;br&gt;&lt;/div&gt;&lt;div&gt;&lt;br&gt;&lt;/div&gt;&lt;div&gt;&lt;br&gt;&lt;/div&gt;&lt;div&gt;&lt;br&gt;&lt;/div&gt;&lt;div&gt;&lt;br&gt;&lt;/div&gt;&lt;div&gt;&lt;br&gt;&lt;/div&gt;&lt;div&gt;Female&lt;br&gt;Left&lt;/div&gt;" style="ellipse;whiteSpace=wrap;html=1;aspect=fixed;" vertex="1" parent="1">
          <mxGeometry x="659" y="800" width="80" height="80" as="geometry" />
        </mxCell>
        <mxCell id="ZJkNO1DkvYYas-fnlK-e-50" value="&lt;div&gt;&lt;br&gt;&lt;/div&gt;&lt;div&gt;&lt;br&gt;&lt;/div&gt;&lt;div&gt;&lt;br&gt;&lt;/div&gt;&lt;div&gt;&lt;br&gt;&lt;/div&gt;&lt;div&gt;&lt;br&gt;&lt;/div&gt;&lt;div&gt;&lt;br&gt;&lt;/div&gt;&lt;div&gt;&lt;br&gt;&lt;/div&gt;&lt;div&gt;&lt;br&gt;&lt;/div&gt;&lt;div&gt;&lt;br&gt;&lt;/div&gt;&lt;div&gt;Male&lt;/div&gt;&lt;div&gt;Left&lt;/div&gt;" style="ellipse;whiteSpace=wrap;html=1;aspect=fixed;" vertex="1" parent="1">
          <mxGeometry x="747" y="800" width="80" height="80" as="geometry" />
        </mxCell>
        <mxCell id="ZJkNO1DkvYYas-fnlK-e-57" value="" style="group;rotation=-180;" vertex="1" connectable="0" parent="1">
          <mxGeometry x="758.5" y="820" width="57" height="50" as="geometry" />
        </mxCell>
        <mxCell id="ZJkNO1DkvYYas-fnlK-e-54" value="" style="rounded=0;whiteSpace=wrap;html=1;rotation=-180;" vertex="1" parent="ZJkNO1DkvYYas-fnlK-e-57">
          <mxGeometry x="20" y="30" width="15" height="20" as="geometry" />
        </mxCell>
        <mxCell id="ZJkNO1DkvYYas-fnlK-e-55" value="" style="rounded=0;whiteSpace=wrap;html=1;rotation=-180;" vertex="1" parent="ZJkNO1DkvYYas-fnlK-e-57">
          <mxGeometry x="42" width="15" height="20" as="geometry" />
        </mxCell>
        <mxCell id="ZJkNO1DkvYYas-fnlK-e-56" value="" style="rounded=0;whiteSpace=wrap;html=1;rotation=-180;" vertex="1" parent="ZJkNO1DkvYYas-fnlK-e-57">
          <mxGeometry width="15" height="20" as="geometry" />
        </mxCell>
        <mxCell id="ZJkNO1DkvYYas-fnlK-e-58" value="" style="group;rotation=-180;" vertex="1" connectable="0" parent="1">
          <mxGeometry x="669" y="820" width="57" height="50" as="geometry" />
        </mxCell>
        <mxCell id="ZJkNO1DkvYYas-fnlK-e-59" value="" style="rounded=0;whiteSpace=wrap;html=1;rotation=-180;" vertex="1" parent="ZJkNO1DkvYYas-fnlK-e-58">
          <mxGeometry x="20" y="30" width="15" height="20" as="geometry" />
        </mxCell>
        <mxCell id="ZJkNO1DkvYYas-fnlK-e-60" value="" style="rounded=0;whiteSpace=wrap;html=1;rotation=-180;" vertex="1" parent="ZJkNO1DkvYYas-fnlK-e-58">
          <mxGeometry x="42" width="15" height="20" as="geometry" />
        </mxCell>
        <mxCell id="ZJkNO1DkvYYas-fnlK-e-61" value="" style="rounded=0;whiteSpace=wrap;html=1;rotation=-180;" vertex="1" parent="ZJkNO1DkvYYas-fnlK-e-58">
          <mxGeometry width="15" height="20" as="geometry" />
        </mxCell>
        <mxCell id="ZJkNO1DkvYYas-fnlK-e-64" style="edgeStyle=orthogonalEdgeStyle;rounded=0;orthogonalLoop=1;jettySize=auto;html=1;exitX=0.5;exitY=1;exitDx=0;exitDy=0;entryX=0;entryY=0.5;entryDx=0;entryDy=0;strokeColor=light-dark(#B20000,#FF0000);" edge="1" parent="1" source="ZJkNO1DkvYYas-fnlK-e-59" target="ZJkNO1DkvYYas-fnlK-e-44">
          <mxGeometry relative="1" as="geometry">
            <Array as="points">
              <mxPoint x="697" y="750" />
              <mxPoint x="680" y="750" />
              <mxPoint x="680" y="620" />
            </Array>
          </mxGeometry>
        </mxCell>
        <mxCell id="ZJkNO1DkvYYas-fnlK-e-65" style="edgeStyle=orthogonalEdgeStyle;rounded=0;orthogonalLoop=1;jettySize=auto;html=1;exitX=0.5;exitY=1;exitDx=0;exitDy=0;entryX=0;entryY=0.5;entryDx=0;entryDy=0;strokeColor=light-dark(#000000,#00CC00);" edge="1" parent="1" source="ZJkNO1DkvYYas-fnlK-e-60" target="ZJkNO1DkvYYas-fnlK-e-45">
          <mxGeometry relative="1" as="geometry">
            <Array as="points">
              <mxPoint x="719" y="780" />
              <mxPoint x="759" y="780" />
              <mxPoint x="759" y="620" />
            </Array>
          </mxGeometry>
        </mxCell>
        <mxCell id="ZJkNO1DkvYYas-fnlK-e-66" style="edgeStyle=orthogonalEdgeStyle;rounded=0;orthogonalLoop=1;jettySize=auto;html=1;exitX=0.5;exitY=1;exitDx=0;exitDy=0;entryX=1;entryY=0.5;entryDx=0;entryDy=0;strokeColor=light-dark(#000000,#00CC00);" edge="1" parent="1" source="ZJkNO1DkvYYas-fnlK-e-56" target="ZJkNO1DkvYYas-fnlK-e-43">
          <mxGeometry relative="1" as="geometry">
            <Array as="points">
              <mxPoint x="766" y="780" />
              <mxPoint x="830" y="780" />
              <mxPoint x="830" y="540" />
            </Array>
          </mxGeometry>
        </mxCell>
        <mxCell id="ZJkNO1DkvYYas-fnlK-e-67" style="edgeStyle=orthogonalEdgeStyle;rounded=0;orthogonalLoop=1;jettySize=auto;html=1;exitX=0.5;exitY=1;exitDx=0;exitDy=0;entryX=1;entryY=0.5;entryDx=0;entryDy=0;strokeColor=light-dark(#B20000,#FF0000);" edge="1" parent="1" source="ZJkNO1DkvYYas-fnlK-e-54" target="ZJkNO1DkvYYas-fnlK-e-42">
          <mxGeometry relative="1" as="geometry">
            <Array as="points">
              <mxPoint x="786" y="770" />
              <mxPoint x="769" y="770" />
              <mxPoint x="769" y="540" />
            </Array>
          </mxGeometry>
        </mxCell>
        <mxCell id="ZJkNO1DkvYYas-fnlK-e-68" style="edgeStyle=orthogonalEdgeStyle;rounded=0;orthogonalLoop=1;jettySize=auto;html=1;exitX=0.5;exitY=1;exitDx=0;exitDy=0;entryX=1;entryY=0.5;entryDx=0;entryDy=0;strokeColor=light-dark(#000000,#FFFF00);" edge="1" parent="1" source="ZJkNO1DkvYYas-fnlK-e-55" target="ZJkNO1DkvYYas-fnlK-e-47">
          <mxGeometry relative="1" as="geometry" />
        </mxCell>
        <mxCell id="ZJkNO1DkvYYas-fnlK-e-69" style="edgeStyle=orthogonalEdgeStyle;rounded=0;orthogonalLoop=1;jettySize=auto;html=1;exitX=0.5;exitY=1;exitDx=0;exitDy=0;entryX=0;entryY=0.5;entryDx=0;entryDy=0;strokeColor=light-dark(#000000,#FFFF00);" edge="1" parent="1" source="ZJkNO1DkvYYas-fnlK-e-61" target="ZJkNO1DkvYYas-fnlK-e-46">
          <mxGeometry relative="1" as="geometry" />
        </mxCell>
        <mxCell id="ZJkNO1DkvYYas-fnlK-e-72" value="" style="rounded=0;whiteSpace=wrap;html=1;fillColor=none;fontColor=#ffffff;strokeColor=light-dark(#000000,#00CC00);" vertex="1" parent="1">
          <mxGeometry x="300" y="270" width="110" height="150" as="geometry" />
        </mxCell>
        <mxCell id="ZJkNO1DkvYYas-fnlK-e-112" value="&lt;div&gt;ON&lt;/div&gt;&lt;div&gt;&lt;br&gt;&lt;/div&gt;&lt;div&gt;OFF&lt;/div&gt;" style="rounded=0;whiteSpace=wrap;html=1;" vertex="1" parent="1">
          <mxGeometry x="60" y="470" width="40" height="60" as="geometry" />
        </mxCell>
        <mxCell id="ZJkNO1DkvYYas-fnlK-e-118" style="edgeStyle=orthogonalEdgeStyle;rounded=0;orthogonalLoop=1;jettySize=auto;html=1;exitX=1;exitY=0.5;exitDx=0;exitDy=0;entryX=0;entryY=0.25;entryDx=0;entryDy=0;" edge="1" parent="1" source="ZJkNO1DkvYYas-fnlK-e-114" target="ZJkNO1DkvYYas-fnlK-e-116">
          <mxGeometry relative="1" as="geometry" />
        </mxCell>
        <mxCell id="ZJkNO1DkvYYas-fnlK-e-114" value="" style="rounded=0;whiteSpace=wrap;html=1;" vertex="1" parent="1">
          <mxGeometry x="100" y="470" width="10" height="10" as="geometry" />
        </mxCell>
        <mxCell id="ZJkNO1DkvYYas-fnlK-e-115" value="" style="rounded=0;whiteSpace=wrap;html=1;" vertex="1" parent="1">
          <mxGeometry x="100" y="520" width="10" height="10" as="geometry" />
        </mxCell>
        <mxCell id="ZJkNO1DkvYYas-fnlK-e-117" style="edgeStyle=orthogonalEdgeStyle;rounded=0;orthogonalLoop=1;jettySize=auto;html=1;exitX=0;exitY=0.75;exitDx=0;exitDy=0;entryX=1;entryY=0.5;entryDx=0;entryDy=0;" edge="1" parent="1" source="ZJkNO1DkvYYas-fnlK-e-116" target="ZJkNO1DkvYYas-fnlK-e-115">
          <mxGeometry relative="1" as="geometry" />
        </mxCell>
        <mxCell id="ZJkNO1DkvYYas-fnlK-e-265" style="edgeStyle=orthogonalEdgeStyle;rounded=0;orthogonalLoop=1;jettySize=auto;html=1;exitX=0.75;exitY=1;exitDx=0;exitDy=0;entryX=0;entryY=0.5;entryDx=0;entryDy=0;strokeColor=light-dark(#000000,#0000FF);" edge="1" parent="1" source="ZJkNO1DkvYYas-fnlK-e-116" target="ZJkNO1DkvYYas-fnlK-e-216">
          <mxGeometry relative="1" as="geometry" />
        </mxCell>
        <mxCell id="ZJkNO1DkvYYas-fnlK-e-116" value="Microcontroller" style="rounded=0;whiteSpace=wrap;html=1;fillColor=default;strokeColor=light-dark(#000000,#00FF00);" vertex="1" parent="1">
          <mxGeometry x="180" y="470" width="120" height="60" as="geometry" />
        </mxCell>
        <mxCell id="ZJkNO1DkvYYas-fnlK-e-164" value="" style="group" vertex="1" connectable="0" parent="1">
          <mxGeometry x="60" y="810" width="80" height="80" as="geometry" />
        </mxCell>
        <mxCell id="ZJkNO1DkvYYas-fnlK-e-80" value="&lt;div&gt;&lt;br&gt;&lt;/div&gt;&lt;div&gt;&lt;br&gt;&lt;/div&gt;&lt;div&gt;&lt;br&gt;&lt;/div&gt;&lt;div&gt;&lt;br&gt;&lt;/div&gt;&lt;div&gt;&lt;br&gt;&lt;/div&gt;&lt;div&gt;&lt;br&gt;&lt;/div&gt;&lt;div&gt;&lt;br&gt;&lt;/div&gt;&lt;div&gt;&lt;br&gt;&lt;/div&gt;&lt;div&gt;Female&lt;/div&gt;" style="ellipse;whiteSpace=wrap;html=1;aspect=fixed;fillColor=none;" vertex="1" parent="ZJkNO1DkvYYas-fnlK-e-164">
          <mxGeometry width="80" height="80" as="geometry" />
        </mxCell>
        <mxCell id="ZJkNO1DkvYYas-fnlK-e-76" value="" style="group;rotation=-180;" vertex="1" connectable="0" parent="ZJkNO1DkvYYas-fnlK-e-164">
          <mxGeometry x="11.5" y="20" width="57" height="50" as="geometry" />
        </mxCell>
        <mxCell id="ZJkNO1DkvYYas-fnlK-e-77" value="" style="rounded=0;whiteSpace=wrap;html=1;rotation=-180;" vertex="1" parent="ZJkNO1DkvYYas-fnlK-e-76">
          <mxGeometry x="20" y="30" width="15" height="20" as="geometry" />
        </mxCell>
        <mxCell id="ZJkNO1DkvYYas-fnlK-e-78" value="" style="rounded=0;whiteSpace=wrap;html=1;rotation=-180;" vertex="1" parent="ZJkNO1DkvYYas-fnlK-e-76">
          <mxGeometry x="42" width="15" height="20" as="geometry" />
        </mxCell>
        <mxCell id="ZJkNO1DkvYYas-fnlK-e-79" value="" style="rounded=0;whiteSpace=wrap;html=1;rotation=-180;" vertex="1" parent="ZJkNO1DkvYYas-fnlK-e-76">
          <mxGeometry width="15" height="20" as="geometry" />
        </mxCell>
        <mxCell id="ZJkNO1DkvYYas-fnlK-e-165" value="" style="group" vertex="1" connectable="0" parent="1">
          <mxGeometry x="150" y="810" width="80" height="80" as="geometry" />
        </mxCell>
        <mxCell id="ZJkNO1DkvYYas-fnlK-e-166" value="&lt;div&gt;&lt;br&gt;&lt;/div&gt;&lt;div&gt;&lt;br&gt;&lt;/div&gt;&lt;div&gt;&lt;br&gt;&lt;/div&gt;&lt;div&gt;&lt;br&gt;&lt;/div&gt;&lt;div&gt;&lt;br&gt;&lt;/div&gt;&lt;div&gt;&lt;br&gt;&lt;/div&gt;&lt;div&gt;&lt;br&gt;&lt;/div&gt;&lt;div&gt;&lt;br&gt;&lt;/div&gt;&lt;div&gt;Male&lt;/div&gt;" style="ellipse;whiteSpace=wrap;html=1;aspect=fixed;fillColor=none;" vertex="1" parent="ZJkNO1DkvYYas-fnlK-e-165">
          <mxGeometry width="80" height="80" as="geometry" />
        </mxCell>
        <mxCell id="ZJkNO1DkvYYas-fnlK-e-167" value="" style="group;rotation=-180;" vertex="1" connectable="0" parent="ZJkNO1DkvYYas-fnlK-e-165">
          <mxGeometry x="11.5" y="20" width="57" height="50" as="geometry" />
        </mxCell>
        <mxCell id="ZJkNO1DkvYYas-fnlK-e-168" value="" style="rounded=0;whiteSpace=wrap;html=1;rotation=-180;" vertex="1" parent="ZJkNO1DkvYYas-fnlK-e-167">
          <mxGeometry x="20" y="30" width="15" height="20" as="geometry" />
        </mxCell>
        <mxCell id="ZJkNO1DkvYYas-fnlK-e-169" value="" style="rounded=0;whiteSpace=wrap;html=1;rotation=-180;" vertex="1" parent="ZJkNO1DkvYYas-fnlK-e-167">
          <mxGeometry x="42" width="15" height="20" as="geometry" />
        </mxCell>
        <mxCell id="ZJkNO1DkvYYas-fnlK-e-170" value="" style="rounded=0;whiteSpace=wrap;html=1;rotation=-180;" vertex="1" parent="ZJkNO1DkvYYas-fnlK-e-167">
          <mxGeometry width="15" height="20" as="geometry" />
        </mxCell>
        <mxCell id="ZJkNO1DkvYYas-fnlK-e-196" style="edgeStyle=orthogonalEdgeStyle;rounded=0;orthogonalLoop=1;jettySize=auto;html=1;exitX=0.5;exitY=1;exitDx=0;exitDy=0;entryX=0;entryY=0.5;entryDx=0;entryDy=0;strokeColor=light-dark(#000000,#00CC00);" edge="1" parent="1" source="ZJkNO1DkvYYas-fnlK-e-170" target="ZJkNO1DkvYYas-fnlK-e-126">
          <mxGeometry relative="1" as="geometry">
            <Array as="points">
              <mxPoint x="170" y="830" />
              <mxPoint x="170" y="790" />
              <mxPoint x="186" y="790" />
              <mxPoint x="186" y="674" />
            </Array>
          </mxGeometry>
        </mxCell>
        <mxCell id="ZJkNO1DkvYYas-fnlK-e-197" style="edgeStyle=orthogonalEdgeStyle;rounded=0;orthogonalLoop=1;jettySize=auto;html=1;exitX=0.5;exitY=1;exitDx=0;exitDy=0;entryX=1;entryY=0.5;entryDx=0;entryDy=0;strokeColor=light-dark(#000000,#00CC00);" edge="1" parent="1" source="ZJkNO1DkvYYas-fnlK-e-78" target="ZJkNO1DkvYYas-fnlK-e-123">
          <mxGeometry relative="1" as="geometry">
            <Array as="points">
              <mxPoint x="121" y="790" />
              <mxPoint x="140" y="790" />
              <mxPoint x="140" y="705" />
            </Array>
          </mxGeometry>
        </mxCell>
        <mxCell id="ZJkNO1DkvYYas-fnlK-e-198" style="edgeStyle=orthogonalEdgeStyle;rounded=0;orthogonalLoop=1;jettySize=auto;html=1;exitX=0.5;exitY=1;exitDx=0;exitDy=0;entryX=1;entryY=0.5;entryDx=0;entryDy=0;strokeColor=light-dark(#B20000,#FF0000);" edge="1" parent="1" source="ZJkNO1DkvYYas-fnlK-e-77" target="ZJkNO1DkvYYas-fnlK-e-127">
          <mxGeometry relative="1" as="geometry">
            <Array as="points">
              <mxPoint x="99" y="800" />
              <mxPoint x="90" y="800" />
              <mxPoint x="90" y="674" />
            </Array>
          </mxGeometry>
        </mxCell>
        <mxCell id="ZJkNO1DkvYYas-fnlK-e-207" value="" style="group;rotation=-180;" vertex="1" connectable="0" parent="1">
          <mxGeometry x="470" y="610" width="70" height="150" as="geometry" />
        </mxCell>
        <mxCell id="ZJkNO1DkvYYas-fnlK-e-208" value="" style="rounded=0;whiteSpace=wrap;html=1;container=0;rotation=-180;" vertex="1" parent="ZJkNO1DkvYYas-fnlK-e-207">
          <mxGeometry width="70" height="150" as="geometry" />
        </mxCell>
        <mxCell id="ZJkNO1DkvYYas-fnlK-e-209" value="" style="rounded=0;whiteSpace=wrap;html=1;container=0;rotation=-180;" vertex="1" parent="ZJkNO1DkvYYas-fnlK-e-207">
          <mxGeometry x="42" y="119" width="13.650000000000002" height="15.714285714285715" as="geometry" />
        </mxCell>
        <mxCell id="ZJkNO1DkvYYas-fnlK-e-210" style="edgeStyle=orthogonalEdgeStyle;rounded=0;orthogonalLoop=1;jettySize=auto;html=1;exitX=0.5;exitY=0;exitDx=0;exitDy=0;entryX=0.5;entryY=0;entryDx=0;entryDy=0;startArrow=classic;startFill=1;strokeColor=light-dark(#000000,#FFFF00);" edge="1" parent="ZJkNO1DkvYYas-fnlK-e-207" source="ZJkNO1DkvYYas-fnlK-e-211" target="ZJkNO1DkvYYas-fnlK-e-209">
          <mxGeometry relative="1" as="geometry">
            <Array as="points">
              <mxPoint x="21" y="140" />
              <mxPoint x="49" y="140" />
            </Array>
          </mxGeometry>
        </mxCell>
        <mxCell id="ZJkNO1DkvYYas-fnlK-e-211" value="" style="rounded=0;whiteSpace=wrap;html=1;container=0;rotation=-180;" vertex="1" parent="ZJkNO1DkvYYas-fnlK-e-207">
          <mxGeometry x="14" y="119" width="13.650000000000002" height="15.714285714285715" as="geometry" />
        </mxCell>
        <mxCell id="ZJkNO1DkvYYas-fnlK-e-212" value="" style="rounded=0;whiteSpace=wrap;html=1;container=0;rotation=-180;" vertex="1" parent="ZJkNO1DkvYYas-fnlK-e-207">
          <mxGeometry x="42" y="87" width="13.650000000000002" height="15.714285714285715" as="geometry" />
        </mxCell>
        <mxCell id="ZJkNO1DkvYYas-fnlK-e-213" value="" style="rounded=0;whiteSpace=wrap;html=1;container=0;rotation=-180;" vertex="1" parent="ZJkNO1DkvYYas-fnlK-e-207">
          <mxGeometry x="14" y="87" width="13.650000000000002" height="15.714285714285715" as="geometry" />
        </mxCell>
        <mxCell id="ZJkNO1DkvYYas-fnlK-e-214" value="" style="rounded=0;whiteSpace=wrap;html=1;container=0;rotation=-180;" vertex="1" parent="ZJkNO1DkvYYas-fnlK-e-207">
          <mxGeometry x="42" y="56" width="13.650000000000002" height="15.714285714285715" as="geometry" />
        </mxCell>
        <mxCell id="ZJkNO1DkvYYas-fnlK-e-215" value="" style="rounded=0;whiteSpace=wrap;html=1;container=0;rotation=-180;" vertex="1" parent="ZJkNO1DkvYYas-fnlK-e-207">
          <mxGeometry x="14" y="56" width="13.650000000000002" height="15.714285714285715" as="geometry" />
        </mxCell>
        <mxCell id="ZJkNO1DkvYYas-fnlK-e-216" value="" style="rounded=0;whiteSpace=wrap;html=1;container=0;rotation=-180;" vertex="1" parent="ZJkNO1DkvYYas-fnlK-e-207">
          <mxGeometry x="42" y="14" width="13.650000000000002" height="15.714285714285715" as="geometry" />
        </mxCell>
        <mxCell id="ZJkNO1DkvYYas-fnlK-e-217" value="" style="rounded=0;whiteSpace=wrap;html=1;container=0;rotation=-180;" vertex="1" parent="ZJkNO1DkvYYas-fnlK-e-207">
          <mxGeometry x="14" y="14" width="13.650000000000002" height="15.714285714285715" as="geometry" />
        </mxCell>
        <mxCell id="ZJkNO1DkvYYas-fnlK-e-199" style="edgeStyle=orthogonalEdgeStyle;rounded=0;orthogonalLoop=1;jettySize=auto;html=1;exitX=1;exitY=0.5;exitDx=0;exitDy=0;entryX=1;entryY=0.5;entryDx=0;entryDy=0;strokeColor=light-dark(#B20000,#FF0000);" edge="1" parent="1">
          <mxGeometry relative="1" as="geometry">
            <mxPoint x="185.74999999999977" y="870" as="sourcePoint" />
            <mxPoint x="128.24999999999977" y="704.8571428571429" as="targetPoint" />
            <Array as="points">
              <mxPoint x="144.25" y="870" />
              <mxPoint x="144.25" y="780" />
              <mxPoint x="104.25" y="780" />
              <mxPoint x="104.25" y="705" />
            </Array>
          </mxGeometry>
        </mxCell>
        <mxCell id="ZJkNO1DkvYYas-fnlK-e-201" style="edgeStyle=orthogonalEdgeStyle;rounded=0;orthogonalLoop=1;jettySize=auto;html=1;exitX=0.5;exitY=1;exitDx=0;exitDy=0;entryX=1;entryY=0.5;entryDx=0;entryDy=0;strokeColor=light-dark(#000000,#FFFF00);" edge="1" parent="1" source="ZJkNO1DkvYYas-fnlK-e-79" target="ZJkNO1DkvYYas-fnlK-e-122">
          <mxGeometry relative="1" as="geometry" />
        </mxCell>
        <mxCell id="ZJkNO1DkvYYas-fnlK-e-202" style="edgeStyle=orthogonalEdgeStyle;rounded=0;orthogonalLoop=1;jettySize=auto;html=1;exitX=0.5;exitY=1;exitDx=0;exitDy=0;entryX=0;entryY=0.5;entryDx=0;entryDy=0;strokeColor=light-dark(#000000,#FFFF00);" edge="1" parent="1" source="ZJkNO1DkvYYas-fnlK-e-169" target="ZJkNO1DkvYYas-fnlK-e-121">
          <mxGeometry relative="1" as="geometry" />
        </mxCell>
        <mxCell id="ZJkNO1DkvYYas-fnlK-e-206" style="edgeStyle=orthogonalEdgeStyle;rounded=0;orthogonalLoop=1;jettySize=auto;html=1;exitX=1;exitY=0.5;exitDx=0;exitDy=0;entryX=0.113;entryY=1.004;entryDx=0;entryDy=0;entryPerimeter=0;strokeColor=light-dark(#000000,#0000FF);" edge="1" parent="1" source="ZJkNO1DkvYYas-fnlK-e-130" target="ZJkNO1DkvYYas-fnlK-e-116">
          <mxGeometry relative="1" as="geometry" />
        </mxCell>
        <mxCell id="ZJkNO1DkvYYas-fnlK-e-218" value="" style="group" vertex="1" connectable="0" parent="1">
          <mxGeometry x="420" y="810" width="80" height="80" as="geometry" />
        </mxCell>
        <mxCell id="ZJkNO1DkvYYas-fnlK-e-219" value="&lt;div&gt;&lt;br&gt;&lt;/div&gt;&lt;div&gt;&lt;br&gt;&lt;/div&gt;&lt;div&gt;&lt;br&gt;&lt;/div&gt;&lt;div&gt;&lt;br&gt;&lt;/div&gt;&lt;div&gt;&lt;br&gt;&lt;/div&gt;&lt;div&gt;&lt;br&gt;&lt;/div&gt;&lt;div&gt;&lt;br&gt;&lt;/div&gt;&lt;div&gt;&lt;br&gt;&lt;/div&gt;&lt;div&gt;Female&lt;/div&gt;" style="ellipse;whiteSpace=wrap;html=1;aspect=fixed;fillColor=none;" vertex="1" parent="ZJkNO1DkvYYas-fnlK-e-218">
          <mxGeometry width="80" height="80" as="geometry" />
        </mxCell>
        <mxCell id="ZJkNO1DkvYYas-fnlK-e-220" value="" style="group;rotation=-180;" vertex="1" connectable="0" parent="ZJkNO1DkvYYas-fnlK-e-218">
          <mxGeometry x="11.5" y="20" width="57" height="50" as="geometry" />
        </mxCell>
        <mxCell id="ZJkNO1DkvYYas-fnlK-e-221" value="" style="rounded=0;whiteSpace=wrap;html=1;rotation=-180;" vertex="1" parent="ZJkNO1DkvYYas-fnlK-e-220">
          <mxGeometry x="20" y="30" width="15" height="20" as="geometry" />
        </mxCell>
        <mxCell id="ZJkNO1DkvYYas-fnlK-e-222" value="" style="rounded=0;whiteSpace=wrap;html=1;rotation=-180;" vertex="1" parent="ZJkNO1DkvYYas-fnlK-e-220">
          <mxGeometry x="42" width="15" height="20" as="geometry" />
        </mxCell>
        <mxCell id="ZJkNO1DkvYYas-fnlK-e-223" value="" style="rounded=0;whiteSpace=wrap;html=1;rotation=-180;" vertex="1" parent="ZJkNO1DkvYYas-fnlK-e-220">
          <mxGeometry width="15" height="20" as="geometry" />
        </mxCell>
        <mxCell id="ZJkNO1DkvYYas-fnlK-e-224" value="" style="group" vertex="1" connectable="0" parent="1">
          <mxGeometry x="510" y="810" width="80" height="80" as="geometry" />
        </mxCell>
        <mxCell id="ZJkNO1DkvYYas-fnlK-e-225" value="&lt;div&gt;&lt;br&gt;&lt;/div&gt;&lt;div&gt;&lt;br&gt;&lt;/div&gt;&lt;div&gt;&lt;br&gt;&lt;/div&gt;&lt;div&gt;&lt;br&gt;&lt;/div&gt;&lt;div&gt;&lt;br&gt;&lt;/div&gt;&lt;div&gt;&lt;br&gt;&lt;/div&gt;&lt;div&gt;&lt;br&gt;&lt;/div&gt;&lt;div&gt;&lt;br&gt;&lt;/div&gt;&lt;div&gt;Male&lt;/div&gt;" style="ellipse;whiteSpace=wrap;html=1;aspect=fixed;fillColor=none;" vertex="1" parent="ZJkNO1DkvYYas-fnlK-e-224">
          <mxGeometry width="80" height="80" as="geometry" />
        </mxCell>
        <mxCell id="ZJkNO1DkvYYas-fnlK-e-226" value="" style="group;rotation=-180;" vertex="1" connectable="0" parent="ZJkNO1DkvYYas-fnlK-e-224">
          <mxGeometry x="11.5" y="20" width="57" height="50" as="geometry" />
        </mxCell>
        <mxCell id="ZJkNO1DkvYYas-fnlK-e-227" value="" style="rounded=0;whiteSpace=wrap;html=1;rotation=-180;" vertex="1" parent="ZJkNO1DkvYYas-fnlK-e-226">
          <mxGeometry x="20" y="30" width="15" height="20" as="geometry" />
        </mxCell>
        <mxCell id="ZJkNO1DkvYYas-fnlK-e-228" value="" style="rounded=0;whiteSpace=wrap;html=1;rotation=-180;" vertex="1" parent="ZJkNO1DkvYYas-fnlK-e-226">
          <mxGeometry x="42" width="15" height="20" as="geometry" />
        </mxCell>
        <mxCell id="ZJkNO1DkvYYas-fnlK-e-229" value="" style="rounded=0;whiteSpace=wrap;html=1;rotation=-180;" vertex="1" parent="ZJkNO1DkvYYas-fnlK-e-226">
          <mxGeometry width="15" height="20" as="geometry" />
        </mxCell>
        <mxCell id="ZJkNO1DkvYYas-fnlK-e-230" style="edgeStyle=orthogonalEdgeStyle;rounded=0;orthogonalLoop=1;jettySize=auto;html=1;exitX=0.5;exitY=1;exitDx=0;exitDy=0;entryX=0;entryY=0.5;entryDx=0;entryDy=0;strokeColor=light-dark(#000000,#00CC00);" edge="1" parent="1" source="ZJkNO1DkvYYas-fnlK-e-229" target="ZJkNO1DkvYYas-fnlK-e-214">
          <mxGeometry relative="1" as="geometry">
            <Array as="points">
              <mxPoint x="530" y="830" />
              <mxPoint x="530" y="790" />
              <mxPoint x="546" y="790" />
              <mxPoint x="546" y="674" />
            </Array>
          </mxGeometry>
        </mxCell>
        <mxCell id="ZJkNO1DkvYYas-fnlK-e-231" style="edgeStyle=orthogonalEdgeStyle;rounded=0;orthogonalLoop=1;jettySize=auto;html=1;exitX=0.5;exitY=1;exitDx=0;exitDy=0;entryX=1;entryY=0.5;entryDx=0;entryDy=0;strokeColor=light-dark(#000000,#00CC00);" edge="1" parent="1" source="ZJkNO1DkvYYas-fnlK-e-222" target="ZJkNO1DkvYYas-fnlK-e-212">
          <mxGeometry relative="1" as="geometry">
            <Array as="points">
              <mxPoint x="481" y="790" />
              <mxPoint x="500" y="790" />
              <mxPoint x="500" y="705" />
            </Array>
          </mxGeometry>
        </mxCell>
        <mxCell id="ZJkNO1DkvYYas-fnlK-e-232" style="edgeStyle=orthogonalEdgeStyle;rounded=0;orthogonalLoop=1;jettySize=auto;html=1;exitX=0.5;exitY=1;exitDx=0;exitDy=0;entryX=1;entryY=0.5;entryDx=0;entryDy=0;strokeColor=light-dark(#B20000,#FF0000);" edge="1" parent="1" source="ZJkNO1DkvYYas-fnlK-e-221" target="ZJkNO1DkvYYas-fnlK-e-215">
          <mxGeometry relative="1" as="geometry">
            <Array as="points">
              <mxPoint x="459" y="800" />
              <mxPoint x="450" y="800" />
              <mxPoint x="450" y="674" />
            </Array>
          </mxGeometry>
        </mxCell>
        <mxCell id="ZJkNO1DkvYYas-fnlK-e-233" style="edgeStyle=orthogonalEdgeStyle;rounded=0;orthogonalLoop=1;jettySize=auto;html=1;exitX=1;exitY=0.5;exitDx=0;exitDy=0;entryX=1;entryY=0.5;entryDx=0;entryDy=0;strokeColor=light-dark(#B20000,#FF0000);" edge="1" parent="1">
          <mxGeometry relative="1" as="geometry">
            <mxPoint x="545.7499999999998" y="870" as="sourcePoint" />
            <mxPoint x="488.2499999999998" y="704.8571428571429" as="targetPoint" />
            <Array as="points">
              <mxPoint x="504.25" y="870" />
              <mxPoint x="504.25" y="780" />
              <mxPoint x="464.25" y="780" />
              <mxPoint x="464.25" y="705" />
            </Array>
          </mxGeometry>
        </mxCell>
        <mxCell id="ZJkNO1DkvYYas-fnlK-e-234" style="edgeStyle=orthogonalEdgeStyle;rounded=0;orthogonalLoop=1;jettySize=auto;html=1;exitX=0.5;exitY=1;exitDx=0;exitDy=0;entryX=1;entryY=0.5;entryDx=0;entryDy=0;strokeColor=light-dark(#000000,#FFFF00);" edge="1" parent="1" source="ZJkNO1DkvYYas-fnlK-e-223" target="ZJkNO1DkvYYas-fnlK-e-211">
          <mxGeometry relative="1" as="geometry" />
        </mxCell>
        <mxCell id="ZJkNO1DkvYYas-fnlK-e-235" style="edgeStyle=orthogonalEdgeStyle;rounded=0;orthogonalLoop=1;jettySize=auto;html=1;exitX=0.5;exitY=1;exitDx=0;exitDy=0;entryX=0;entryY=0.5;entryDx=0;entryDy=0;strokeColor=light-dark(#000000,#FFFF00);" edge="1" parent="1" source="ZJkNO1DkvYYas-fnlK-e-228" target="ZJkNO1DkvYYas-fnlK-e-209">
          <mxGeometry relative="1" as="geometry" />
        </mxCell>
        <mxCell id="ZJkNO1DkvYYas-fnlK-e-236" value="" style="group;rotation=-180;" vertex="1" connectable="0" parent="1">
          <mxGeometry x="290" y="610" width="70" height="150" as="geometry" />
        </mxCell>
        <mxCell id="ZJkNO1DkvYYas-fnlK-e-237" value="" style="rounded=0;whiteSpace=wrap;html=1;container=0;rotation=-180;" vertex="1" parent="ZJkNO1DkvYYas-fnlK-e-236">
          <mxGeometry width="70" height="150" as="geometry" />
        </mxCell>
        <mxCell id="ZJkNO1DkvYYas-fnlK-e-238" value="" style="rounded=0;whiteSpace=wrap;html=1;container=0;rotation=-180;" vertex="1" parent="ZJkNO1DkvYYas-fnlK-e-236">
          <mxGeometry x="42" y="119" width="13.650000000000002" height="15.714285714285715" as="geometry" />
        </mxCell>
        <mxCell id="ZJkNO1DkvYYas-fnlK-e-239" style="edgeStyle=orthogonalEdgeStyle;rounded=0;orthogonalLoop=1;jettySize=auto;html=1;exitX=0.5;exitY=0;exitDx=0;exitDy=0;entryX=0.5;entryY=0;entryDx=0;entryDy=0;startArrow=classic;startFill=1;strokeColor=light-dark(#000000,#FFFF00);" edge="1" parent="ZJkNO1DkvYYas-fnlK-e-236" source="ZJkNO1DkvYYas-fnlK-e-240" target="ZJkNO1DkvYYas-fnlK-e-238">
          <mxGeometry relative="1" as="geometry">
            <Array as="points">
              <mxPoint x="21" y="140" />
              <mxPoint x="49" y="140" />
            </Array>
          </mxGeometry>
        </mxCell>
        <mxCell id="ZJkNO1DkvYYas-fnlK-e-240" value="" style="rounded=0;whiteSpace=wrap;html=1;container=0;rotation=-180;" vertex="1" parent="ZJkNO1DkvYYas-fnlK-e-236">
          <mxGeometry x="14" y="119" width="13.650000000000002" height="15.714285714285715" as="geometry" />
        </mxCell>
        <mxCell id="ZJkNO1DkvYYas-fnlK-e-241" value="" style="rounded=0;whiteSpace=wrap;html=1;container=0;rotation=-180;" vertex="1" parent="ZJkNO1DkvYYas-fnlK-e-236">
          <mxGeometry x="42" y="87" width="13.650000000000002" height="15.714285714285715" as="geometry" />
        </mxCell>
        <mxCell id="ZJkNO1DkvYYas-fnlK-e-242" value="" style="rounded=0;whiteSpace=wrap;html=1;container=0;rotation=-180;" vertex="1" parent="ZJkNO1DkvYYas-fnlK-e-236">
          <mxGeometry x="14" y="87" width="13.650000000000002" height="15.714285714285715" as="geometry" />
        </mxCell>
        <mxCell id="ZJkNO1DkvYYas-fnlK-e-243" value="" style="rounded=0;whiteSpace=wrap;html=1;container=0;rotation=-180;" vertex="1" parent="ZJkNO1DkvYYas-fnlK-e-236">
          <mxGeometry x="42" y="56" width="13.650000000000002" height="15.714285714285715" as="geometry" />
        </mxCell>
        <mxCell id="ZJkNO1DkvYYas-fnlK-e-244" value="" style="rounded=0;whiteSpace=wrap;html=1;container=0;rotation=-180;" vertex="1" parent="ZJkNO1DkvYYas-fnlK-e-236">
          <mxGeometry x="14" y="56" width="13.650000000000002" height="15.714285714285715" as="geometry" />
        </mxCell>
        <mxCell id="ZJkNO1DkvYYas-fnlK-e-245" value="" style="rounded=0;whiteSpace=wrap;html=1;container=0;rotation=-180;" vertex="1" parent="ZJkNO1DkvYYas-fnlK-e-236">
          <mxGeometry x="42" y="14" width="13.650000000000002" height="15.714285714285715" as="geometry" />
        </mxCell>
        <mxCell id="ZJkNO1DkvYYas-fnlK-e-246" value="" style="rounded=0;whiteSpace=wrap;html=1;container=0;rotation=-180;" vertex="1" parent="ZJkNO1DkvYYas-fnlK-e-236">
          <mxGeometry x="14" y="14" width="13.650000000000002" height="15.714285714285715" as="geometry" />
        </mxCell>
        <mxCell id="ZJkNO1DkvYYas-fnlK-e-247" value="" style="group" vertex="1" connectable="0" parent="1">
          <mxGeometry x="240" y="810" width="80" height="80" as="geometry" />
        </mxCell>
        <mxCell id="ZJkNO1DkvYYas-fnlK-e-248" value="&lt;div&gt;&lt;br&gt;&lt;/div&gt;&lt;div&gt;&lt;br&gt;&lt;/div&gt;&lt;div&gt;&lt;br&gt;&lt;/div&gt;&lt;div&gt;&lt;br&gt;&lt;/div&gt;&lt;div&gt;&lt;br&gt;&lt;/div&gt;&lt;div&gt;&lt;br&gt;&lt;/div&gt;&lt;div&gt;&lt;br&gt;&lt;/div&gt;&lt;div&gt;&lt;br&gt;&lt;/div&gt;&lt;div&gt;Female&lt;/div&gt;" style="ellipse;whiteSpace=wrap;html=1;aspect=fixed;fillColor=none;" vertex="1" parent="ZJkNO1DkvYYas-fnlK-e-247">
          <mxGeometry width="80" height="80" as="geometry" />
        </mxCell>
        <mxCell id="ZJkNO1DkvYYas-fnlK-e-249" value="" style="group;rotation=-180;" vertex="1" connectable="0" parent="ZJkNO1DkvYYas-fnlK-e-247">
          <mxGeometry x="11.5" y="20" width="57" height="50" as="geometry" />
        </mxCell>
        <mxCell id="ZJkNO1DkvYYas-fnlK-e-250" value="" style="rounded=0;whiteSpace=wrap;html=1;rotation=-180;" vertex="1" parent="ZJkNO1DkvYYas-fnlK-e-249">
          <mxGeometry x="20" y="30" width="15" height="20" as="geometry" />
        </mxCell>
        <mxCell id="ZJkNO1DkvYYas-fnlK-e-251" value="" style="rounded=0;whiteSpace=wrap;html=1;rotation=-180;" vertex="1" parent="ZJkNO1DkvYYas-fnlK-e-249">
          <mxGeometry x="42" width="15" height="20" as="geometry" />
        </mxCell>
        <mxCell id="ZJkNO1DkvYYas-fnlK-e-252" value="" style="rounded=0;whiteSpace=wrap;html=1;rotation=-180;" vertex="1" parent="ZJkNO1DkvYYas-fnlK-e-249">
          <mxGeometry width="15" height="20" as="geometry" />
        </mxCell>
        <mxCell id="ZJkNO1DkvYYas-fnlK-e-253" value="" style="group" vertex="1" connectable="0" parent="1">
          <mxGeometry x="330" y="810" width="80" height="80" as="geometry" />
        </mxCell>
        <mxCell id="ZJkNO1DkvYYas-fnlK-e-254" value="&lt;div&gt;&lt;br&gt;&lt;/div&gt;&lt;div&gt;&lt;br&gt;&lt;/div&gt;&lt;div&gt;&lt;br&gt;&lt;/div&gt;&lt;div&gt;&lt;br&gt;&lt;/div&gt;&lt;div&gt;&lt;br&gt;&lt;/div&gt;&lt;div&gt;&lt;br&gt;&lt;/div&gt;&lt;div&gt;&lt;br&gt;&lt;/div&gt;&lt;div&gt;&lt;br&gt;&lt;/div&gt;&lt;div&gt;Male&lt;/div&gt;" style="ellipse;whiteSpace=wrap;html=1;aspect=fixed;fillColor=none;" vertex="1" parent="ZJkNO1DkvYYas-fnlK-e-253">
          <mxGeometry width="80" height="80" as="geometry" />
        </mxCell>
        <mxCell id="ZJkNO1DkvYYas-fnlK-e-255" value="" style="group;rotation=-180;" vertex="1" connectable="0" parent="ZJkNO1DkvYYas-fnlK-e-253">
          <mxGeometry x="11.5" y="20" width="57" height="50" as="geometry" />
        </mxCell>
        <mxCell id="ZJkNO1DkvYYas-fnlK-e-256" value="" style="rounded=0;whiteSpace=wrap;html=1;rotation=-180;" vertex="1" parent="ZJkNO1DkvYYas-fnlK-e-255">
          <mxGeometry x="20" y="30" width="15" height="20" as="geometry" />
        </mxCell>
        <mxCell id="ZJkNO1DkvYYas-fnlK-e-257" value="" style="rounded=0;whiteSpace=wrap;html=1;rotation=-180;" vertex="1" parent="ZJkNO1DkvYYas-fnlK-e-255">
          <mxGeometry x="42" width="15" height="20" as="geometry" />
        </mxCell>
        <mxCell id="ZJkNO1DkvYYas-fnlK-e-258" value="" style="rounded=0;whiteSpace=wrap;html=1;rotation=-180;" vertex="1" parent="ZJkNO1DkvYYas-fnlK-e-255">
          <mxGeometry width="15" height="20" as="geometry" />
        </mxCell>
        <mxCell id="ZJkNO1DkvYYas-fnlK-e-259" style="edgeStyle=orthogonalEdgeStyle;rounded=0;orthogonalLoop=1;jettySize=auto;html=1;exitX=0.5;exitY=1;exitDx=0;exitDy=0;entryX=0;entryY=0.5;entryDx=0;entryDy=0;strokeColor=light-dark(#000000,#00CC00);" edge="1" parent="1" source="ZJkNO1DkvYYas-fnlK-e-258" target="ZJkNO1DkvYYas-fnlK-e-243">
          <mxGeometry relative="1" as="geometry">
            <Array as="points">
              <mxPoint x="350" y="830" />
              <mxPoint x="350" y="790" />
              <mxPoint x="366" y="790" />
              <mxPoint x="366" y="674" />
            </Array>
          </mxGeometry>
        </mxCell>
        <mxCell id="ZJkNO1DkvYYas-fnlK-e-260" style="edgeStyle=orthogonalEdgeStyle;rounded=0;orthogonalLoop=1;jettySize=auto;html=1;exitX=0.5;exitY=1;exitDx=0;exitDy=0;entryX=1;entryY=0.5;entryDx=0;entryDy=0;strokeColor=light-dark(#000000,#00CC00);" edge="1" parent="1" source="ZJkNO1DkvYYas-fnlK-e-251" target="ZJkNO1DkvYYas-fnlK-e-241">
          <mxGeometry relative="1" as="geometry">
            <Array as="points">
              <mxPoint x="301" y="790" />
              <mxPoint x="320" y="790" />
              <mxPoint x="320" y="705" />
            </Array>
          </mxGeometry>
        </mxCell>
        <mxCell id="ZJkNO1DkvYYas-fnlK-e-261" style="edgeStyle=orthogonalEdgeStyle;rounded=0;orthogonalLoop=1;jettySize=auto;html=1;exitX=0.5;exitY=1;exitDx=0;exitDy=0;entryX=1;entryY=0.5;entryDx=0;entryDy=0;strokeColor=light-dark(#B20000,#FF0000);" edge="1" parent="1" source="ZJkNO1DkvYYas-fnlK-e-250" target="ZJkNO1DkvYYas-fnlK-e-244">
          <mxGeometry relative="1" as="geometry">
            <Array as="points">
              <mxPoint x="279" y="800" />
              <mxPoint x="270" y="800" />
              <mxPoint x="270" y="674" />
            </Array>
          </mxGeometry>
        </mxCell>
        <mxCell id="ZJkNO1DkvYYas-fnlK-e-262" style="edgeStyle=orthogonalEdgeStyle;rounded=0;orthogonalLoop=1;jettySize=auto;html=1;exitX=1;exitY=0.5;exitDx=0;exitDy=0;entryX=1;entryY=0.5;entryDx=0;entryDy=0;strokeColor=light-dark(#B20000,#FF0000);" edge="1" parent="1">
          <mxGeometry relative="1" as="geometry">
            <mxPoint x="365.7499999999998" y="870" as="sourcePoint" />
            <mxPoint x="308.2499999999998" y="704.8571428571429" as="targetPoint" />
            <Array as="points">
              <mxPoint x="324.25" y="870" />
              <mxPoint x="324.25" y="780" />
              <mxPoint x="284.25" y="780" />
              <mxPoint x="284.25" y="705" />
            </Array>
          </mxGeometry>
        </mxCell>
        <mxCell id="ZJkNO1DkvYYas-fnlK-e-263" style="edgeStyle=orthogonalEdgeStyle;rounded=0;orthogonalLoop=1;jettySize=auto;html=1;exitX=0.5;exitY=1;exitDx=0;exitDy=0;entryX=1;entryY=0.5;entryDx=0;entryDy=0;strokeColor=light-dark(#000000,#FFFF00);" edge="1" parent="1" source="ZJkNO1DkvYYas-fnlK-e-252" target="ZJkNO1DkvYYas-fnlK-e-240">
          <mxGeometry relative="1" as="geometry" />
        </mxCell>
        <mxCell id="ZJkNO1DkvYYas-fnlK-e-264" style="edgeStyle=orthogonalEdgeStyle;rounded=0;orthogonalLoop=1;jettySize=auto;html=1;exitX=0.5;exitY=1;exitDx=0;exitDy=0;entryX=0;entryY=0.5;entryDx=0;entryDy=0;strokeColor=light-dark(#000000,#FFFF00);" edge="1" parent="1" source="ZJkNO1DkvYYas-fnlK-e-257" target="ZJkNO1DkvYYas-fnlK-e-238">
          <mxGeometry relative="1" as="geometry" />
        </mxCell>
        <mxCell id="ZJkNO1DkvYYas-fnlK-e-266" style="edgeStyle=orthogonalEdgeStyle;rounded=0;orthogonalLoop=1;jettySize=auto;html=1;exitX=1;exitY=0.5;exitDx=0;exitDy=0;entryX=0;entryY=0.5;entryDx=0;entryDy=0;strokeColor=light-dark(#000000,#0000FF);" edge="1" parent="1" source="ZJkNO1DkvYYas-fnlK-e-217" target="ZJkNO1DkvYYas-fnlK-e-245">
          <mxGeometry relative="1" as="geometry" />
        </mxCell>
        <mxCell id="ZJkNO1DkvYYas-fnlK-e-267" style="edgeStyle=orthogonalEdgeStyle;rounded=0;orthogonalLoop=1;jettySize=auto;html=1;exitX=1;exitY=0.5;exitDx=0;exitDy=0;strokeColor=light-dark(#000000,#0000FF);" edge="1" parent="1" source="ZJkNO1DkvYYas-fnlK-e-246" target="ZJkNO1DkvYYas-fnlK-e-129">
          <mxGeometry relative="1" as="geometry" />
        </mxCell>
        <mxCell id="ZJkNO1DkvYYas-fnlK-e-322" value="" style="rounded=0;whiteSpace=wrap;html=1;" vertex="1" parent="1">
          <mxGeometry x="880" y="520" width="39" height="40" as="geometry" />
        </mxCell>
        <mxCell id="ZJkNO1DkvYYas-fnlK-e-323" value="" style="rounded=0;whiteSpace=wrap;html=1;" vertex="1" parent="1">
          <mxGeometry x="959.5" y="520" width="39" height="40" as="geometry" />
        </mxCell>
        <mxCell id="ZJkNO1DkvYYas-fnlK-e-324" value="" style="rounded=0;whiteSpace=wrap;html=1;" vertex="1" parent="1">
          <mxGeometry x="880" y="600" width="39" height="40" as="geometry" />
        </mxCell>
        <mxCell id="ZJkNO1DkvYYas-fnlK-e-325" value="" style="rounded=0;whiteSpace=wrap;html=1;" vertex="1" parent="1">
          <mxGeometry x="959.5" y="600" width="39" height="40" as="geometry" />
        </mxCell>
        <mxCell id="ZJkNO1DkvYYas-fnlK-e-326" style="edgeStyle=orthogonalEdgeStyle;rounded=0;orthogonalLoop=1;jettySize=auto;html=1;exitX=0.5;exitY=1;exitDx=0;exitDy=0;entryX=0.5;entryY=1;entryDx=0;entryDy=0;startArrow=classic;startFill=1;strokeColor=light-dark(#000000,#FFFF00);" edge="1" parent="1" source="ZJkNO1DkvYYas-fnlK-e-327" target="ZJkNO1DkvYYas-fnlK-e-328">
          <mxGeometry relative="1" as="geometry" />
        </mxCell>
        <mxCell id="ZJkNO1DkvYYas-fnlK-e-327" value="" style="rounded=0;whiteSpace=wrap;html=1;" vertex="1" parent="1">
          <mxGeometry x="880" y="680" width="39" height="40" as="geometry" />
        </mxCell>
        <mxCell id="ZJkNO1DkvYYas-fnlK-e-328" value="" style="rounded=0;whiteSpace=wrap;html=1;" vertex="1" parent="1">
          <mxGeometry x="959.5" y="680" width="39" height="40" as="geometry" />
        </mxCell>
        <mxCell id="ZJkNO1DkvYYas-fnlK-e-329" value="&lt;div&gt;&lt;br&gt;&lt;/div&gt;&lt;div&gt;&lt;br&gt;&lt;/div&gt;&lt;div&gt;&lt;br&gt;&lt;/div&gt;&lt;div&gt;&lt;br&gt;&lt;/div&gt;&lt;div&gt;&lt;br&gt;&lt;/div&gt;&lt;div&gt;&lt;br&gt;&lt;/div&gt;&lt;div&gt;&lt;br&gt;&lt;/div&gt;&lt;div&gt;&lt;br&gt;&lt;/div&gt;&lt;div&gt;&lt;br&gt;&lt;/div&gt;&lt;div&gt;Female&lt;/div&gt;&lt;div&gt;Right&lt;/div&gt;" style="ellipse;whiteSpace=wrap;html=1;aspect=fixed;" vertex="1" parent="1">
          <mxGeometry x="839" y="800" width="80" height="80" as="geometry" />
        </mxCell>
        <mxCell id="ZJkNO1DkvYYas-fnlK-e-330" value="&lt;div&gt;&lt;br&gt;&lt;/div&gt;&lt;div&gt;&lt;br&gt;&lt;/div&gt;&lt;div&gt;&lt;br&gt;&lt;/div&gt;&lt;div&gt;&lt;br&gt;&lt;/div&gt;&lt;div&gt;&lt;br&gt;&lt;/div&gt;&lt;div&gt;&lt;br&gt;&lt;/div&gt;&lt;div&gt;&lt;br&gt;&lt;/div&gt;&lt;div&gt;&lt;br&gt;&lt;/div&gt;&lt;div&gt;&lt;br&gt;&lt;/div&gt;&lt;div&gt;Male&lt;/div&gt;&lt;div&gt;Right&lt;/div&gt;" style="ellipse;whiteSpace=wrap;html=1;aspect=fixed;" vertex="1" parent="1">
          <mxGeometry x="930" y="800" width="80" height="80" as="geometry" />
        </mxCell>
        <mxCell id="ZJkNO1DkvYYas-fnlK-e-331" value="" style="group;rotation=-180;" vertex="1" connectable="0" parent="1">
          <mxGeometry x="941.5" y="820" width="57" height="50" as="geometry" />
        </mxCell>
        <mxCell id="ZJkNO1DkvYYas-fnlK-e-332" value="" style="rounded=0;whiteSpace=wrap;html=1;rotation=-180;" vertex="1" parent="ZJkNO1DkvYYas-fnlK-e-331">
          <mxGeometry x="20" y="30" width="15" height="20" as="geometry" />
        </mxCell>
        <mxCell id="ZJkNO1DkvYYas-fnlK-e-333" value="" style="rounded=0;whiteSpace=wrap;html=1;rotation=-180;" vertex="1" parent="ZJkNO1DkvYYas-fnlK-e-331">
          <mxGeometry x="42" width="15" height="20" as="geometry" />
        </mxCell>
        <mxCell id="ZJkNO1DkvYYas-fnlK-e-334" value="" style="rounded=0;whiteSpace=wrap;html=1;rotation=-180;" vertex="1" parent="ZJkNO1DkvYYas-fnlK-e-331">
          <mxGeometry width="15" height="20" as="geometry" />
        </mxCell>
        <mxCell id="ZJkNO1DkvYYas-fnlK-e-335" value="" style="group;rotation=-180;" vertex="1" connectable="0" parent="1">
          <mxGeometry x="849" y="820" width="57" height="50" as="geometry" />
        </mxCell>
        <mxCell id="ZJkNO1DkvYYas-fnlK-e-336" value="" style="rounded=0;whiteSpace=wrap;html=1;rotation=-180;" vertex="1" parent="ZJkNO1DkvYYas-fnlK-e-335">
          <mxGeometry x="20" y="30" width="15" height="20" as="geometry" />
        </mxCell>
        <mxCell id="ZJkNO1DkvYYas-fnlK-e-337" value="" style="rounded=0;whiteSpace=wrap;html=1;rotation=-180;" vertex="1" parent="ZJkNO1DkvYYas-fnlK-e-335">
          <mxGeometry x="42" width="15" height="20" as="geometry" />
        </mxCell>
        <mxCell id="ZJkNO1DkvYYas-fnlK-e-338" value="" style="rounded=0;whiteSpace=wrap;html=1;rotation=-180;" vertex="1" parent="ZJkNO1DkvYYas-fnlK-e-335">
          <mxGeometry width="15" height="20" as="geometry" />
        </mxCell>
        <mxCell id="ZJkNO1DkvYYas-fnlK-e-343" style="edgeStyle=orthogonalEdgeStyle;rounded=0;orthogonalLoop=1;jettySize=auto;html=1;exitX=0.5;exitY=1;exitDx=0;exitDy=0;entryX=0;entryY=0.5;entryDx=0;entryDy=0;strokeColor=light-dark(#000000,#FFFF00);" edge="1" parent="1" source="ZJkNO1DkvYYas-fnlK-e-338" target="ZJkNO1DkvYYas-fnlK-e-327">
          <mxGeometry relative="1" as="geometry" />
        </mxCell>
        <mxCell id="ZJkNO1DkvYYas-fnlK-e-344" style="edgeStyle=orthogonalEdgeStyle;rounded=0;orthogonalLoop=1;jettySize=auto;html=1;exitX=0.5;exitY=1;exitDx=0;exitDy=0;entryX=1;entryY=0.5;entryDx=0;entryDy=0;strokeColor=light-dark(#000000,#FFFF00);" edge="1" parent="1" source="ZJkNO1DkvYYas-fnlK-e-333" target="ZJkNO1DkvYYas-fnlK-e-328">
          <mxGeometry relative="1" as="geometry" />
        </mxCell>
        <mxCell id="ZJkNO1DkvYYas-fnlK-e-345" style="edgeStyle=orthogonalEdgeStyle;rounded=0;orthogonalLoop=1;jettySize=auto;html=1;exitX=0.5;exitY=1;exitDx=0;exitDy=0;entryX=1;entryY=0.5;entryDx=0;entryDy=0;strokeColor=light-dark(#000000,#00CC00);" edge="1" parent="1" source="ZJkNO1DkvYYas-fnlK-e-334" target="ZJkNO1DkvYYas-fnlK-e-323">
          <mxGeometry relative="1" as="geometry">
            <Array as="points">
              <mxPoint x="949" y="780" />
              <mxPoint x="1040" y="780" />
              <mxPoint x="1040" y="540" />
            </Array>
          </mxGeometry>
        </mxCell>
        <mxCell id="ZJkNO1DkvYYas-fnlK-e-346" style="edgeStyle=orthogonalEdgeStyle;rounded=0;orthogonalLoop=1;jettySize=auto;html=1;entryX=0;entryY=0.5;entryDx=0;entryDy=0;strokeColor=light-dark(#000000,#00CC00);" edge="1" parent="1" source="ZJkNO1DkvYYas-fnlK-e-337" target="ZJkNO1DkvYYas-fnlK-e-325">
          <mxGeometry relative="1" as="geometry">
            <Array as="points">
              <mxPoint x="899" y="780" />
              <mxPoint x="933" y="780" />
              <mxPoint x="933" y="620" />
            </Array>
          </mxGeometry>
        </mxCell>
        <mxCell id="ZJkNO1DkvYYas-fnlK-e-347" style="edgeStyle=orthogonalEdgeStyle;rounded=0;orthogonalLoop=1;jettySize=auto;html=1;exitX=0.5;exitY=1;exitDx=0;exitDy=0;entryX=1;entryY=0.5;entryDx=0;entryDy=0;strokeColor=light-dark(#B20000,#FF0000);" edge="1" parent="1" source="ZJkNO1DkvYYas-fnlK-e-332" target="ZJkNO1DkvYYas-fnlK-e-322">
          <mxGeometry relative="1" as="geometry">
            <Array as="points">
              <mxPoint x="969" y="790" />
              <mxPoint x="940" y="790" />
              <mxPoint x="940" y="540" />
            </Array>
          </mxGeometry>
        </mxCell>
        <mxCell id="ZJkNO1DkvYYas-fnlK-e-348" style="edgeStyle=orthogonalEdgeStyle;rounded=0;orthogonalLoop=1;jettySize=auto;html=1;exitX=0.5;exitY=1;exitDx=0;exitDy=0;entryX=0;entryY=0.5;entryDx=0;entryDy=0;strokeColor=light-dark(#B20000,#FF0000);" edge="1" parent="1" source="ZJkNO1DkvYYas-fnlK-e-336" target="ZJkNO1DkvYYas-fnlK-e-324">
          <mxGeometry relative="1" as="geometry">
            <Array as="points">
              <mxPoint x="877" y="745" />
              <mxPoint x="870" y="745" />
              <mxPoint x="870" y="620" />
            </Array>
          </mxGeometry>
        </mxCell>
        <mxCell id="ZJkNO1DkvYYas-fnlK-e-350" value="&lt;div&gt;&lt;br&gt;&lt;/div&gt;&lt;div&gt;&lt;br&gt;&lt;/div&gt;&lt;div&gt;&lt;br&gt;&lt;/div&gt;&lt;div&gt;&lt;br&gt;&lt;/div&gt;&lt;div&gt;&lt;br&gt;&lt;/div&gt;&lt;div&gt;&lt;br&gt;&lt;/div&gt;&lt;div&gt;&lt;br&gt;&lt;/div&gt;&lt;div&gt;&lt;br&gt;&lt;/div&gt;&lt;div&gt;&lt;br&gt;&lt;/div&gt;&lt;div&gt;&lt;br&gt;&lt;/div&gt;&lt;div&gt;&lt;br&gt;&lt;/div&gt;&lt;div&gt;&lt;br&gt;&lt;/div&gt;&lt;div&gt;&lt;br&gt;&lt;/div&gt;&lt;div&gt;&lt;br&gt;&lt;/div&gt;&lt;div&gt;&lt;br&gt;&lt;/div&gt;&lt;div&gt;&lt;br&gt;&lt;/div&gt;&lt;div&gt;&lt;br&gt;&lt;/div&gt;&lt;div&gt;&lt;br&gt;&lt;/div&gt;&lt;div&gt;&lt;br&gt;&lt;/div&gt;&lt;div&gt;&lt;br&gt;&lt;/div&gt;&lt;div&gt;&lt;br&gt;&lt;/div&gt;&lt;div&gt;&lt;br&gt;&lt;/div&gt;&lt;div&gt;&lt;br&gt;&lt;/div&gt;&lt;div&gt;&lt;br&gt;&lt;/div&gt;&lt;div&gt;&lt;br&gt;&lt;/div&gt;&lt;div&gt;&lt;br&gt;&lt;/div&gt;&lt;div&gt;&lt;br&gt;&lt;/div&gt;&lt;div&gt;&lt;br&gt;&lt;/div&gt;&lt;div&gt;&lt;br&gt;&lt;/div&gt;&lt;div&gt;&lt;br&gt;&lt;/div&gt;&lt;div&gt;&lt;br&gt;&lt;/div&gt;&lt;div&gt;&lt;br&gt;&lt;/div&gt;&lt;div&gt;4PDT Switch and XLR Connectors&lt;/div&gt;" style="rounded=0;whiteSpace=wrap;html=1;fillColor=none;strokeColor=light-dark(#000000,#00FF00);" vertex="1" parent="1">
          <mxGeometry x="1070" y="450" width="430" height="490" as="geometry" />
        </mxCell>
        <mxCell id="ZJkNO1DkvYYas-fnlK-e-351" value="" style="rounded=0;whiteSpace=wrap;html=1;" vertex="1" parent="1">
          <mxGeometry x="1099" y="480" width="371" height="280" as="geometry" />
        </mxCell>
        <mxCell id="ZJkNO1DkvYYas-fnlK-e-352" value="" style="rounded=0;whiteSpace=wrap;html=1;" vertex="1" parent="1">
          <mxGeometry x="1140" y="520" width="39" height="40" as="geometry" />
        </mxCell>
        <mxCell id="ZJkNO1DkvYYas-fnlK-e-353" value="" style="rounded=0;whiteSpace=wrap;html=1;" vertex="1" parent="1">
          <mxGeometry x="1219.5" y="520" width="39" height="40" as="geometry" />
        </mxCell>
        <mxCell id="ZJkNO1DkvYYas-fnlK-e-354" value="" style="rounded=0;whiteSpace=wrap;html=1;" vertex="1" parent="1">
          <mxGeometry x="1140" y="600" width="39" height="40" as="geometry" />
        </mxCell>
        <mxCell id="ZJkNO1DkvYYas-fnlK-e-355" value="" style="rounded=0;whiteSpace=wrap;html=1;" vertex="1" parent="1">
          <mxGeometry x="1219.5" y="600" width="39" height="40" as="geometry" />
        </mxCell>
        <mxCell id="ZJkNO1DkvYYas-fnlK-e-356" style="edgeStyle=orthogonalEdgeStyle;rounded=0;orthogonalLoop=1;jettySize=auto;html=1;exitX=0.5;exitY=1;exitDx=0;exitDy=0;entryX=0.5;entryY=1;entryDx=0;entryDy=0;startArrow=classic;startFill=1;strokeColor=light-dark(#000000,#FFFF00);" edge="1" parent="1" source="ZJkNO1DkvYYas-fnlK-e-357" target="ZJkNO1DkvYYas-fnlK-e-358">
          <mxGeometry relative="1" as="geometry" />
        </mxCell>
        <mxCell id="ZJkNO1DkvYYas-fnlK-e-357" value="" style="rounded=0;whiteSpace=wrap;html=1;" vertex="1" parent="1">
          <mxGeometry x="1140" y="680" width="39" height="40" as="geometry" />
        </mxCell>
        <mxCell id="ZJkNO1DkvYYas-fnlK-e-358" value="" style="rounded=0;whiteSpace=wrap;html=1;" vertex="1" parent="1">
          <mxGeometry x="1219.5" y="680" width="39" height="40" as="geometry" />
        </mxCell>
        <mxCell id="ZJkNO1DkvYYas-fnlK-e-359" value="&lt;div&gt;&lt;br&gt;&lt;/div&gt;&lt;div&gt;&lt;br&gt;&lt;/div&gt;&lt;div&gt;&lt;br&gt;&lt;/div&gt;&lt;div&gt;&lt;br&gt;&lt;/div&gt;&lt;div&gt;&lt;br&gt;&lt;/div&gt;&lt;div&gt;&lt;br&gt;&lt;/div&gt;&lt;div&gt;&lt;br&gt;&lt;/div&gt;&lt;div&gt;&lt;br&gt;&lt;/div&gt;&lt;div&gt;&lt;br&gt;&lt;/div&gt;&lt;div&gt;Female&lt;br&gt;Left&lt;/div&gt;" style="ellipse;whiteSpace=wrap;html=1;aspect=fixed;" vertex="1" parent="1">
          <mxGeometry x="1099" y="800" width="80" height="80" as="geometry" />
        </mxCell>
        <mxCell id="ZJkNO1DkvYYas-fnlK-e-360" value="&lt;div&gt;&lt;br&gt;&lt;/div&gt;&lt;div&gt;&lt;br&gt;&lt;/div&gt;&lt;div&gt;&lt;br&gt;&lt;/div&gt;&lt;div&gt;&lt;br&gt;&lt;/div&gt;&lt;div&gt;&lt;br&gt;&lt;/div&gt;&lt;div&gt;&lt;br&gt;&lt;/div&gt;&lt;div&gt;&lt;br&gt;&lt;/div&gt;&lt;div&gt;&lt;br&gt;&lt;/div&gt;&lt;div&gt;&lt;br&gt;&lt;/div&gt;&lt;div&gt;Male&lt;/div&gt;&lt;div&gt;Left&lt;/div&gt;" style="ellipse;whiteSpace=wrap;html=1;aspect=fixed;" vertex="1" parent="1">
          <mxGeometry x="1187" y="800" width="80" height="80" as="geometry" />
        </mxCell>
        <mxCell id="ZJkNO1DkvYYas-fnlK-e-361" value="" style="group;rotation=-180;" vertex="1" connectable="0" parent="1">
          <mxGeometry x="1198.5" y="820" width="57" height="50" as="geometry" />
        </mxCell>
        <mxCell id="ZJkNO1DkvYYas-fnlK-e-362" value="" style="rounded=0;whiteSpace=wrap;html=1;rotation=-180;" vertex="1" parent="ZJkNO1DkvYYas-fnlK-e-361">
          <mxGeometry x="20" y="30" width="15" height="20" as="geometry" />
        </mxCell>
        <mxCell id="ZJkNO1DkvYYas-fnlK-e-363" value="" style="rounded=0;whiteSpace=wrap;html=1;rotation=-180;" vertex="1" parent="ZJkNO1DkvYYas-fnlK-e-361">
          <mxGeometry x="42" width="15" height="20" as="geometry" />
        </mxCell>
        <mxCell id="ZJkNO1DkvYYas-fnlK-e-364" value="" style="rounded=0;whiteSpace=wrap;html=1;rotation=-180;" vertex="1" parent="ZJkNO1DkvYYas-fnlK-e-361">
          <mxGeometry width="15" height="20" as="geometry" />
        </mxCell>
        <mxCell id="ZJkNO1DkvYYas-fnlK-e-365" value="" style="group;rotation=-180;" vertex="1" connectable="0" parent="1">
          <mxGeometry x="1109" y="820" width="57" height="50" as="geometry" />
        </mxCell>
        <mxCell id="ZJkNO1DkvYYas-fnlK-e-366" value="" style="rounded=0;whiteSpace=wrap;html=1;rotation=-180;" vertex="1" parent="ZJkNO1DkvYYas-fnlK-e-365">
          <mxGeometry x="20" y="30" width="15" height="20" as="geometry" />
        </mxCell>
        <mxCell id="ZJkNO1DkvYYas-fnlK-e-367" value="" style="rounded=0;whiteSpace=wrap;html=1;rotation=-180;" vertex="1" parent="ZJkNO1DkvYYas-fnlK-e-365">
          <mxGeometry x="42" width="15" height="20" as="geometry" />
        </mxCell>
        <mxCell id="ZJkNO1DkvYYas-fnlK-e-368" value="" style="rounded=0;whiteSpace=wrap;html=1;rotation=-180;" vertex="1" parent="ZJkNO1DkvYYas-fnlK-e-365">
          <mxGeometry width="15" height="20" as="geometry" />
        </mxCell>
        <mxCell id="ZJkNO1DkvYYas-fnlK-e-369" style="edgeStyle=orthogonalEdgeStyle;rounded=0;orthogonalLoop=1;jettySize=auto;html=1;exitX=0.5;exitY=1;exitDx=0;exitDy=0;entryX=0;entryY=0.5;entryDx=0;entryDy=0;strokeColor=light-dark(#B20000,#FF0000);" edge="1" parent="1" source="ZJkNO1DkvYYas-fnlK-e-366" target="ZJkNO1DkvYYas-fnlK-e-354">
          <mxGeometry relative="1" as="geometry">
            <Array as="points">
              <mxPoint x="1137" y="750" />
              <mxPoint x="1120" y="750" />
              <mxPoint x="1120" y="620" />
            </Array>
          </mxGeometry>
        </mxCell>
        <mxCell id="ZJkNO1DkvYYas-fnlK-e-370" style="edgeStyle=orthogonalEdgeStyle;rounded=0;orthogonalLoop=1;jettySize=auto;html=1;exitX=0.5;exitY=1;exitDx=0;exitDy=0;entryX=0;entryY=0.5;entryDx=0;entryDy=0;strokeColor=light-dark(#000000,#00CC00);" edge="1" parent="1" source="ZJkNO1DkvYYas-fnlK-e-367" target="ZJkNO1DkvYYas-fnlK-e-355">
          <mxGeometry relative="1" as="geometry">
            <Array as="points">
              <mxPoint x="1159" y="780" />
              <mxPoint x="1199" y="780" />
              <mxPoint x="1199" y="620" />
            </Array>
          </mxGeometry>
        </mxCell>
        <mxCell id="ZJkNO1DkvYYas-fnlK-e-371" style="edgeStyle=orthogonalEdgeStyle;rounded=0;orthogonalLoop=1;jettySize=auto;html=1;exitX=0.5;exitY=1;exitDx=0;exitDy=0;entryX=1;entryY=0.5;entryDx=0;entryDy=0;strokeColor=light-dark(#000000,#00CC00);" edge="1" parent="1" source="ZJkNO1DkvYYas-fnlK-e-364" target="ZJkNO1DkvYYas-fnlK-e-353">
          <mxGeometry relative="1" as="geometry">
            <Array as="points">
              <mxPoint x="1206" y="780" />
              <mxPoint x="1270" y="780" />
              <mxPoint x="1270" y="540" />
            </Array>
          </mxGeometry>
        </mxCell>
        <mxCell id="ZJkNO1DkvYYas-fnlK-e-372" style="edgeStyle=orthogonalEdgeStyle;rounded=0;orthogonalLoop=1;jettySize=auto;html=1;exitX=0.5;exitY=1;exitDx=0;exitDy=0;entryX=1;entryY=0.5;entryDx=0;entryDy=0;strokeColor=light-dark(#B20000,#FF0000);" edge="1" parent="1" source="ZJkNO1DkvYYas-fnlK-e-362" target="ZJkNO1DkvYYas-fnlK-e-352">
          <mxGeometry relative="1" as="geometry">
            <Array as="points">
              <mxPoint x="1226" y="770" />
              <mxPoint x="1209" y="770" />
              <mxPoint x="1209" y="540" />
            </Array>
          </mxGeometry>
        </mxCell>
        <mxCell id="ZJkNO1DkvYYas-fnlK-e-373" style="edgeStyle=orthogonalEdgeStyle;rounded=0;orthogonalLoop=1;jettySize=auto;html=1;exitX=0.5;exitY=1;exitDx=0;exitDy=0;entryX=1;entryY=0.5;entryDx=0;entryDy=0;strokeColor=light-dark(#000000,#FFFF00);" edge="1" parent="1" source="ZJkNO1DkvYYas-fnlK-e-363" target="ZJkNO1DkvYYas-fnlK-e-358">
          <mxGeometry relative="1" as="geometry" />
        </mxCell>
        <mxCell id="ZJkNO1DkvYYas-fnlK-e-374" style="edgeStyle=orthogonalEdgeStyle;rounded=0;orthogonalLoop=1;jettySize=auto;html=1;exitX=0.5;exitY=1;exitDx=0;exitDy=0;entryX=0;entryY=0.5;entryDx=0;entryDy=0;strokeColor=light-dark(#000000,#FFFF00);" edge="1" parent="1" source="ZJkNO1DkvYYas-fnlK-e-368" target="ZJkNO1DkvYYas-fnlK-e-357">
          <mxGeometry relative="1" as="geometry" />
        </mxCell>
        <mxCell id="ZJkNO1DkvYYas-fnlK-e-375" value="" style="rounded=0;whiteSpace=wrap;html=1;" vertex="1" parent="1">
          <mxGeometry x="1320" y="520" width="39" height="40" as="geometry" />
        </mxCell>
        <mxCell id="ZJkNO1DkvYYas-fnlK-e-376" value="" style="rounded=0;whiteSpace=wrap;html=1;" vertex="1" parent="1">
          <mxGeometry x="1399.5" y="520" width="39" height="40" as="geometry" />
        </mxCell>
        <mxCell id="ZJkNO1DkvYYas-fnlK-e-377" value="" style="rounded=0;whiteSpace=wrap;html=1;" vertex="1" parent="1">
          <mxGeometry x="1320" y="600" width="39" height="40" as="geometry" />
        </mxCell>
        <mxCell id="ZJkNO1DkvYYas-fnlK-e-378" value="" style="rounded=0;whiteSpace=wrap;html=1;" vertex="1" parent="1">
          <mxGeometry x="1399.5" y="600" width="39" height="40" as="geometry" />
        </mxCell>
        <mxCell id="ZJkNO1DkvYYas-fnlK-e-379" style="edgeStyle=orthogonalEdgeStyle;rounded=0;orthogonalLoop=1;jettySize=auto;html=1;exitX=0.5;exitY=1;exitDx=0;exitDy=0;entryX=0.5;entryY=1;entryDx=0;entryDy=0;startArrow=classic;startFill=1;strokeColor=light-dark(#000000,#FFFF00);" edge="1" parent="1" source="ZJkNO1DkvYYas-fnlK-e-380" target="ZJkNO1DkvYYas-fnlK-e-381">
          <mxGeometry relative="1" as="geometry" />
        </mxCell>
        <mxCell id="ZJkNO1DkvYYas-fnlK-e-380" value="" style="rounded=0;whiteSpace=wrap;html=1;" vertex="1" parent="1">
          <mxGeometry x="1320" y="680" width="39" height="40" as="geometry" />
        </mxCell>
        <mxCell id="ZJkNO1DkvYYas-fnlK-e-381" value="" style="rounded=0;whiteSpace=wrap;html=1;" vertex="1" parent="1">
          <mxGeometry x="1399.5" y="680" width="39" height="40" as="geometry" />
        </mxCell>
        <mxCell id="ZJkNO1DkvYYas-fnlK-e-382" value="&lt;div&gt;&lt;br&gt;&lt;/div&gt;&lt;div&gt;&lt;br&gt;&lt;/div&gt;&lt;div&gt;&lt;br&gt;&lt;/div&gt;&lt;div&gt;&lt;br&gt;&lt;/div&gt;&lt;div&gt;&lt;br&gt;&lt;/div&gt;&lt;div&gt;&lt;br&gt;&lt;/div&gt;&lt;div&gt;&lt;br&gt;&lt;/div&gt;&lt;div&gt;&lt;br&gt;&lt;/div&gt;&lt;div&gt;&lt;br&gt;&lt;/div&gt;&lt;div&gt;Female&lt;/div&gt;&lt;div&gt;Right&lt;/div&gt;" style="ellipse;whiteSpace=wrap;html=1;aspect=fixed;" vertex="1" parent="1">
          <mxGeometry x="1279" y="800" width="80" height="80" as="geometry" />
        </mxCell>
        <mxCell id="ZJkNO1DkvYYas-fnlK-e-383" value="&lt;div&gt;&lt;br&gt;&lt;/div&gt;&lt;div&gt;&lt;br&gt;&lt;/div&gt;&lt;div&gt;&lt;br&gt;&lt;/div&gt;&lt;div&gt;&lt;br&gt;&lt;/div&gt;&lt;div&gt;&lt;br&gt;&lt;/div&gt;&lt;div&gt;&lt;br&gt;&lt;/div&gt;&lt;div&gt;&lt;br&gt;&lt;/div&gt;&lt;div&gt;&lt;br&gt;&lt;/div&gt;&lt;div&gt;&lt;br&gt;&lt;/div&gt;&lt;div&gt;Male&lt;/div&gt;&lt;div&gt;Right&lt;/div&gt;" style="ellipse;whiteSpace=wrap;html=1;aspect=fixed;" vertex="1" parent="1">
          <mxGeometry x="1370" y="800" width="80" height="80" as="geometry" />
        </mxCell>
        <mxCell id="ZJkNO1DkvYYas-fnlK-e-384" value="" style="group;rotation=-180;" vertex="1" connectable="0" parent="1">
          <mxGeometry x="1381.5" y="820" width="57" height="50" as="geometry" />
        </mxCell>
        <mxCell id="ZJkNO1DkvYYas-fnlK-e-385" value="" style="rounded=0;whiteSpace=wrap;html=1;rotation=-180;" vertex="1" parent="ZJkNO1DkvYYas-fnlK-e-384">
          <mxGeometry x="20" y="30" width="15" height="20" as="geometry" />
        </mxCell>
        <mxCell id="ZJkNO1DkvYYas-fnlK-e-386" value="" style="rounded=0;whiteSpace=wrap;html=1;rotation=-180;" vertex="1" parent="ZJkNO1DkvYYas-fnlK-e-384">
          <mxGeometry x="42" width="15" height="20" as="geometry" />
        </mxCell>
        <mxCell id="ZJkNO1DkvYYas-fnlK-e-387" value="" style="rounded=0;whiteSpace=wrap;html=1;rotation=-180;" vertex="1" parent="ZJkNO1DkvYYas-fnlK-e-384">
          <mxGeometry width="15" height="20" as="geometry" />
        </mxCell>
        <mxCell id="ZJkNO1DkvYYas-fnlK-e-388" value="" style="group;rotation=-180;" vertex="1" connectable="0" parent="1">
          <mxGeometry x="1289" y="820" width="57" height="50" as="geometry" />
        </mxCell>
        <mxCell id="ZJkNO1DkvYYas-fnlK-e-389" value="" style="rounded=0;whiteSpace=wrap;html=1;rotation=-180;" vertex="1" parent="ZJkNO1DkvYYas-fnlK-e-388">
          <mxGeometry x="20" y="30" width="15" height="20" as="geometry" />
        </mxCell>
        <mxCell id="ZJkNO1DkvYYas-fnlK-e-390" value="" style="rounded=0;whiteSpace=wrap;html=1;rotation=-180;" vertex="1" parent="ZJkNO1DkvYYas-fnlK-e-388">
          <mxGeometry x="42" width="15" height="20" as="geometry" />
        </mxCell>
        <mxCell id="ZJkNO1DkvYYas-fnlK-e-391" value="" style="rounded=0;whiteSpace=wrap;html=1;rotation=-180;" vertex="1" parent="ZJkNO1DkvYYas-fnlK-e-388">
          <mxGeometry width="15" height="20" as="geometry" />
        </mxCell>
        <mxCell id="ZJkNO1DkvYYas-fnlK-e-392" style="edgeStyle=orthogonalEdgeStyle;rounded=0;orthogonalLoop=1;jettySize=auto;html=1;exitX=0.5;exitY=1;exitDx=0;exitDy=0;entryX=0;entryY=0.5;entryDx=0;entryDy=0;strokeColor=light-dark(#000000,#FFFF00);" edge="1" parent="1" source="ZJkNO1DkvYYas-fnlK-e-391" target="ZJkNO1DkvYYas-fnlK-e-380">
          <mxGeometry relative="1" as="geometry" />
        </mxCell>
        <mxCell id="ZJkNO1DkvYYas-fnlK-e-393" style="edgeStyle=orthogonalEdgeStyle;rounded=0;orthogonalLoop=1;jettySize=auto;html=1;exitX=0.5;exitY=1;exitDx=0;exitDy=0;entryX=1;entryY=0.5;entryDx=0;entryDy=0;strokeColor=light-dark(#000000,#FFFF00);" edge="1" parent="1" source="ZJkNO1DkvYYas-fnlK-e-386" target="ZJkNO1DkvYYas-fnlK-e-381">
          <mxGeometry relative="1" as="geometry" />
        </mxCell>
        <mxCell id="ZJkNO1DkvYYas-fnlK-e-394" style="edgeStyle=orthogonalEdgeStyle;rounded=0;orthogonalLoop=1;jettySize=auto;html=1;exitX=0.5;exitY=1;exitDx=0;exitDy=0;entryX=1;entryY=0.5;entryDx=0;entryDy=0;strokeColor=light-dark(#000000,#00CC00);" edge="1" parent="1" source="ZJkNO1DkvYYas-fnlK-e-387" target="ZJkNO1DkvYYas-fnlK-e-376">
          <mxGeometry relative="1" as="geometry">
            <Array as="points">
              <mxPoint x="1389" y="780" />
              <mxPoint x="1480" y="780" />
              <mxPoint x="1480" y="540" />
            </Array>
          </mxGeometry>
        </mxCell>
        <mxCell id="ZJkNO1DkvYYas-fnlK-e-395" style="edgeStyle=orthogonalEdgeStyle;rounded=0;orthogonalLoop=1;jettySize=auto;html=1;entryX=0;entryY=0.5;entryDx=0;entryDy=0;strokeColor=light-dark(#000000,#00CC00);" edge="1" parent="1" source="ZJkNO1DkvYYas-fnlK-e-390" target="ZJkNO1DkvYYas-fnlK-e-378">
          <mxGeometry relative="1" as="geometry">
            <Array as="points">
              <mxPoint x="1339" y="780" />
              <mxPoint x="1373" y="780" />
              <mxPoint x="1373" y="620" />
            </Array>
          </mxGeometry>
        </mxCell>
        <mxCell id="ZJkNO1DkvYYas-fnlK-e-396" style="edgeStyle=orthogonalEdgeStyle;rounded=0;orthogonalLoop=1;jettySize=auto;html=1;exitX=0.5;exitY=1;exitDx=0;exitDy=0;entryX=1;entryY=0.5;entryDx=0;entryDy=0;strokeColor=light-dark(#B20000,#FF0000);" edge="1" parent="1" source="ZJkNO1DkvYYas-fnlK-e-385" target="ZJkNO1DkvYYas-fnlK-e-375">
          <mxGeometry relative="1" as="geometry">
            <Array as="points">
              <mxPoint x="1409" y="790" />
              <mxPoint x="1380" y="790" />
              <mxPoint x="1380" y="540" />
            </Array>
          </mxGeometry>
        </mxCell>
        <mxCell id="ZJkNO1DkvYYas-fnlK-e-397" style="edgeStyle=orthogonalEdgeStyle;rounded=0;orthogonalLoop=1;jettySize=auto;html=1;exitX=0.5;exitY=1;exitDx=0;exitDy=0;entryX=0;entryY=0.5;entryDx=0;entryDy=0;strokeColor=light-dark(#B20000,#FF0000);" edge="1" parent="1" source="ZJkNO1DkvYYas-fnlK-e-389" target="ZJkNO1DkvYYas-fnlK-e-377">
          <mxGeometry relative="1" as="geometry">
            <Array as="points">
              <mxPoint x="1317" y="745" />
              <mxPoint x="1310" y="745" />
              <mxPoint x="1310" y="620" />
            </Array>
          </mxGeometry>
        </mxCell>
        <mxCell id="ZJkNO1DkvYYas-fnlK-e-431" value="Bass Distort / Destroyer" style="rounded=0;whiteSpace=wrap;html=1;" vertex="1" parent="1">
          <mxGeometry x="530" y="45" width="240" height="150" as="geometry" />
        </mxCell>
        <mxCell id="ZJkNO1DkvYYas-fnlK-e-432" value="Bass Shaper / EQ" style="rounded=0;whiteSpace=wrap;html=1;" vertex="1" parent="1">
          <mxGeometry x="779.5" y="45" width="240" height="150" as="geometry" />
        </mxCell>
        <mxCell id="ZJkNO1DkvYYas-fnlK-e-433" value="&lt;b&gt;&lt;font style=&quot;font-size: 18px;&quot;&gt;Bass Destroyer / Bass Shaper Skizze&lt;/font&gt;&lt;/b&gt;" style="text;html=1;align=center;verticalAlign=middle;resizable=0;points=[];autosize=1;strokeColor=none;fillColor=none;" vertex="1" parent="1">
          <mxGeometry x="40" y="1000" width="340" height="40" as="geometry" />
        </mxCell>
        <mxCell id="ZJkNO1DkvYYas-fnlK-e-434" value="" style="rounded=0;whiteSpace=wrap;html=1;" vertex="1" parent="1">
          <mxGeometry x="40" y="1080" width="1020" height="460" as="geometry" />
        </mxCell>
        <mxCell id="ZJkNO1DkvYYas-fnlK-e-439" style="edgeStyle=orthogonalEdgeStyle;rounded=0;orthogonalLoop=1;jettySize=auto;html=1;entryX=0;entryY=0.5;entryDx=0;entryDy=0;" edge="1" parent="1" source="ZJkNO1DkvYYas-fnlK-e-435" target="ZJkNO1DkvYYas-fnlK-e-437">
          <mxGeometry relative="1" as="geometry" />
        </mxCell>
        <mxCell id="ZJkNO1DkvYYas-fnlK-e-435" value="Klinge IN" style="rounded=0;whiteSpace=wrap;html=1;" vertex="1" parent="1">
          <mxGeometry x="60" y="1100" width="140" height="30" as="geometry" />
        </mxCell>
        <mxCell id="ZJkNO1DkvYYas-fnlK-e-436" value="Klinge OUT" style="rounded=0;whiteSpace=wrap;html=1;" vertex="1" parent="1">
          <mxGeometry x="900" y="1100" width="140" height="30" as="geometry" />
        </mxCell>
        <mxCell id="ZJkNO1DkvYYas-fnlK-e-440" style="edgeStyle=orthogonalEdgeStyle;rounded=0;orthogonalLoop=1;jettySize=auto;html=1;exitX=1;exitY=0.5;exitDx=0;exitDy=0;" edge="1" parent="1" source="ZJkNO1DkvYYas-fnlK-e-437" target="ZJkNO1DkvYYas-fnlK-e-438">
          <mxGeometry relative="1" as="geometry" />
        </mxCell>
        <mxCell id="ZJkNO1DkvYYas-fnlK-e-441" value="Aus" style="edgeLabel;html=1;align=center;verticalAlign=middle;resizable=0;points=[];" vertex="1" connectable="0" parent="ZJkNO1DkvYYas-fnlK-e-440">
          <mxGeometry x="0.2283" y="-2" relative="1" as="geometry">
            <mxPoint as="offset" />
          </mxGeometry>
        </mxCell>
        <mxCell id="ZJkNO1DkvYYas-fnlK-e-445" style="edgeStyle=orthogonalEdgeStyle;rounded=0;orthogonalLoop=1;jettySize=auto;html=1;exitX=0.5;exitY=1;exitDx=0;exitDy=0;" edge="1" parent="1" source="ZJkNO1DkvYYas-fnlK-e-437" target="ZJkNO1DkvYYas-fnlK-e-444">
          <mxGeometry relative="1" as="geometry" />
        </mxCell>
        <mxCell id="ZJkNO1DkvYYas-fnlK-e-446" value="An" style="edgeLabel;html=1;align=center;verticalAlign=middle;resizable=0;points=[];" vertex="1" connectable="0" parent="ZJkNO1DkvYYas-fnlK-e-445">
          <mxGeometry y="-1" relative="1" as="geometry">
            <mxPoint as="offset" />
          </mxGeometry>
        </mxCell>
        <mxCell id="ZJkNO1DkvYYas-fnlK-e-437" value="Schalter Destroyer" style="rounded=0;whiteSpace=wrap;html=1;" vertex="1" parent="1">
          <mxGeometry x="250" y="1150" width="120" height="40" as="geometry" />
        </mxCell>
        <mxCell id="ZJkNO1DkvYYas-fnlK-e-442" style="edgeStyle=orthogonalEdgeStyle;rounded=0;orthogonalLoop=1;jettySize=auto;html=1;exitX=1;exitY=0.5;exitDx=0;exitDy=0;entryX=0;entryY=0.5;entryDx=0;entryDy=0;" edge="1" parent="1" source="ZJkNO1DkvYYas-fnlK-e-438" target="ZJkNO1DkvYYas-fnlK-e-436">
          <mxGeometry relative="1" as="geometry" />
        </mxCell>
        <mxCell id="ZJkNO1DkvYYas-fnlK-e-443" value="Aus" style="edgeLabel;html=1;align=center;verticalAlign=middle;resizable=0;points=[];" vertex="1" connectable="0" parent="ZJkNO1DkvYYas-fnlK-e-442">
          <mxGeometry x="0.3723" y="-3" relative="1" as="geometry">
            <mxPoint as="offset" />
          </mxGeometry>
        </mxCell>
        <mxCell id="ZJkNO1DkvYYas-fnlK-e-449" style="edgeStyle=orthogonalEdgeStyle;rounded=0;orthogonalLoop=1;jettySize=auto;html=1;entryX=0.5;entryY=0;entryDx=0;entryDy=0;" edge="1" parent="1" source="ZJkNO1DkvYYas-fnlK-e-438" target="ZJkNO1DkvYYas-fnlK-e-448">
          <mxGeometry relative="1" as="geometry" />
        </mxCell>
        <mxCell id="ZJkNO1DkvYYas-fnlK-e-451" value="An" style="edgeLabel;html=1;align=center;verticalAlign=middle;resizable=0;points=[];" vertex="1" connectable="0" parent="ZJkNO1DkvYYas-fnlK-e-449">
          <mxGeometry x="0.08" y="-2" relative="1" as="geometry">
            <mxPoint as="offset" />
          </mxGeometry>
        </mxCell>
        <mxCell id="ZJkNO1DkvYYas-fnlK-e-438" value="Schalter Shaper" style="rounded=0;whiteSpace=wrap;html=1;" vertex="1" parent="1">
          <mxGeometry x="610" y="1150" width="120" height="40" as="geometry" />
        </mxCell>
        <mxCell id="ZJkNO1DkvYYas-fnlK-e-447" style="edgeStyle=orthogonalEdgeStyle;rounded=0;orthogonalLoop=1;jettySize=auto;html=1;entryX=0;entryY=0.5;entryDx=0;entryDy=0;" edge="1" parent="1" source="ZJkNO1DkvYYas-fnlK-e-444" target="ZJkNO1DkvYYas-fnlK-e-438">
          <mxGeometry relative="1" as="geometry">
            <Array as="points">
              <mxPoint x="570" y="1260" />
              <mxPoint x="570" y="1170" />
            </Array>
          </mxGeometry>
        </mxCell>
        <mxCell id="ZJkNO1DkvYYas-fnlK-e-444" value="Destroyer" style="rounded=0;whiteSpace=wrap;html=1;" vertex="1" parent="1">
          <mxGeometry x="250" y="1230" width="120" height="60" as="geometry" />
        </mxCell>
        <mxCell id="ZJkNO1DkvYYas-fnlK-e-450" style="edgeStyle=orthogonalEdgeStyle;rounded=0;orthogonalLoop=1;jettySize=auto;html=1;exitX=1;exitY=0.5;exitDx=0;exitDy=0;entryX=0;entryY=0.5;entryDx=0;entryDy=0;" edge="1" parent="1" source="ZJkNO1DkvYYas-fnlK-e-448" target="ZJkNO1DkvYYas-fnlK-e-436">
          <mxGeometry relative="1" as="geometry" />
        </mxCell>
        <mxCell id="ZJkNO1DkvYYas-fnlK-e-448" value="Shaper" style="rounded=0;whiteSpace=wrap;html=1;" vertex="1" parent="1">
          <mxGeometry x="610" y="1230" width="120" height="60" as="geometry" />
        </mxCell>
      </root>
    </mxGraphModel>
  </diagram>
</mxfile>
